<?xml version="1.0" encoding="utf-8"?>
<!-- Generator: Adobe Illustrator 21.1.0, SVG Export Plug-In . SVG Version: 6.00 Build 0)  -->
<svg version="1.1" id="Camada_1" xmlns="http://www.w3.org/2000/svg" xmlns:xlink="http://www.w3.org/1999/xlink" x="0px" y="0px"
	 viewBox="0 0 503.9 153" style="enable-background:new 0 0 503.9 153;" xml:space="preserve">
<style type="text/css">
	.st0{fill:#084A17;}
</style>
<path id="Caminho_3196" class="st0" d="M25.4,31.8h7.2l-11-29.6H14L2.8,31.8h6.9l2.1-6h11.4L25.4,31.8z M17.6,9.5l3.5,10.2H14
	L17.6,9.5z M32.8,25.9c0.2,2.3,2.3,6.5,8.8,6.5c5.6,0,8.3-3.5,8.3-7c0-3-2.1-5.6-6.4-6.5l-2.8-0.5c-0.9-0.2-1.6-0.7-1.6-1.5
	c0.1-1.1,1.1-1.9,2.2-1.8l0,0c1.5-0.1,2.8,1,3,2.5c0,0,0,0,0,0.1l5.3-1c-0.2-2.4-2.3-6.2-8.3-6.2c-4.6,0-8,3.1-8,6.9
	c0,2.9,1.8,5.4,6.2,6.4l2.4,0.5c1.5,0.3,2,1,2,1.7c0,0.9-0.8,1.8-2.4,1.8c-1.6,0.2-3.1-1-3.2-2.6c0-0.1,0-0.1,0-0.2L32.8,25.9z
	 M68.1,31.8v-12c-0.1-1.9,1.3-3.5,3.1-3.6c0.1,0,0.2,0,0.3,0c1.7-0.1,3.2,1.2,3.4,3c0,0.2,0,0.4,0,0.6v12h6.3v-12
	c-0.1-1.9,1.3-3.4,3.2-3.5c0.1,0,0.2,0,0.3,0c1.7-0.1,3.2,1.2,3.3,3c0,0.2,0,0.4,0,0.5v12h6V18.3c0-5.6-3.8-7.9-7.7-7.9
	c-2.6-0.2-5,1.1-6.4,3.3c-1-2-3.2-3.3-6.1-3.3c-2.3,0-4.9,1.2-6,3V11h-6.1v20.7L68.1,31.8L68.1,31.8z M102.9,18.9
	c0.2-2.1,2-3.6,4.1-3.5c3,0,4.1,1.9,4.2,3.5H102.9z M111.7,24.3c-0.6,1.8-2.3,2.9-4.2,2.7c-2.4,0.1-4.5-1.6-4.7-4h14.5
	c0.1-0.7,0.1-1.3,0.1-2c0-6.7-4-10.6-10.4-10.6c-5.4,0-10.4,4.3-10.4,10.9c-0.3,5.8,4.2,10.8,10,11.1c0.3,0,0.5,0,0.8,0
	c5.3,0,8.6-3,9.6-6.6L111.7,24.3z M126.5,31.8V1.5h-6.3v30.2L126.5,31.8L126.5,31.8z M137.2,19.6c0-1.8,1.5-3.3,3.3-3.3h0.1
	c2.3,0,3.4,1.5,3.4,3.6v11.9h6.3v-13c0-4.6-2.4-8.3-7.8-8.3c-1.9-0.1-3.8,0.6-5.3,1.9V1.5h-6.3v30.2h6.3V19.6z M164,26.5
	c-2.4,0-4.7-1.7-4.7-5.2s2.3-5.1,4.7-5.1s4.7,1.6,4.7,5.1S166.4,26.5,164,26.5L164,26.5z M164,10.4c-5.9-0.2-10.9,4.5-11,10.4
	c0,0.2,0,0.4,0,0.6c-0.1,5.9,4.5,10.9,10.5,11c0.2,0,0.4,0,0.5,0c5.9,0.2,10.9-4.5,11-10.4c0-0.2,0-0.4,0-0.6
	c0.2-5.9-4.5-10.8-10.4-11C164.4,10.4,164.2,10.4,164,10.4L164,10.4z M191.1,11c-0.5-0.1-1.1-0.2-1.7-0.2c-2.2-0.1-4.3,1.1-5.4,3V11
	h-6.1v20.7h6.3v-9.1c0-4.1,2.3-5.6,4.8-5.6c0.7,0,1.3,0.1,2,0.2L191.1,11L191.1,11z M198.2,18.9c0.2-2.1,2-3.6,4.1-3.5
	c3,0,4.1,1.9,4.2,3.5H198.2z M207,24.3c-0.6,1.8-2.3,2.9-4.2,2.7c-2.4,0.1-4.5-1.6-4.7-4h14.4c0.1-0.7,0.1-1.3,0.1-2
	c0-6.7-4-10.6-10.4-10.6c-5.4,0-10.4,4.3-10.4,10.9c-0.3,5.8,4.2,10.8,10.1,11.1c0.3,0,0.5,0,0.8,0c5.3,0,8.6-3,9.6-6.6L207,24.3z
	 M213.8,25.9c0.2,2.3,2.3,6.5,8.8,6.5c5.6,0,8.3-3.5,8.3-7c0-3-2.1-5.6-6.4-6.5l-2.8-0.5c-0.9-0.2-1.6-0.7-1.6-1.5
	c0.1-1.1,1.1-1.9,2.2-1.8l0,0c1.5-0.1,2.8,1,3,2.5c0,0,0,0,0,0.1l5.3-1c-0.2-2.4-2.3-6.2-8.3-6.2c-4.6,0-8,3.1-8,6.9
	c0,2.9,1.8,5.4,6.2,6.4l2.4,0.5c1.5,0.3,2,1,2,1.7c0,0.9-0.8,1.8-2.4,1.8c-1.6,0.2-3.1-1-3.2-2.6c0-0.1,0-0.1,0-0.2L213.8,25.9z
	 M263.5,9.4c-0.6-3.5-3.4-7.9-10.8-7.9c-5.7,0-10.6,3.9-10.6,9.5c0,4.4,3,7.7,8.1,8.7l4,0.8c2,0.4,3.2,1.5,3.2,3
	c0,1.8-1.6,3.1-4.2,3.1c-4,0-5.9-2.4-6.1-5.1L241,23c0.4,4.2,3.9,9.5,12.1,9.5c7.1,0,10.9-4.7,10.9-9.4c0-4.2-2.9-7.8-8.6-8.9
	l-4-0.8c-2-0.4-2.9-1.4-2.9-2.8c0-1.6,1.6-3.2,4-3.2c3.6,0,4.7,2.3,4.9,3.7L263.5,9.4z M273,31.8V1.5h-6.3v30.2L273,31.8L273,31.8z
	 M286.9,26.5c-2.4,0-4.7-1.7-4.7-5.2s2.3-5.1,4.7-5.1c2.4,0,4.7,1.6,4.7,5.1S289.3,26.5,286.9,26.5z M286.9,10.4
	c-5.9-0.2-10.9,4.5-11,10.4c0,0.2,0,0.4,0,0.6c-0.1,5.9,4.5,10.9,10.5,11c0.2,0,0.4,0,0.5,0c5.9,0.2,10.9-4.5,11-10.4
	c0-0.2,0-0.4,0-0.6c0.2-5.9-4.5-10.8-10.4-11C287.3,10.4,287.1,10.4,286.9,10.4z M308.3,5h-5.7v2.7c0.2,1.7-1,3.2-2.7,3.4
	c-0.2,0-0.4,0-0.5,0h-1v5.6h3.7v8.9c0,4.1,2.6,6.7,6.9,6.7c1.1,0.1,2.3-0.1,3.3-0.6v-5.3c-0.5,0.1-1.1,0.2-1.7,0.2
	c-1.4,0-2.3-0.5-2.3-2.2v-7.8h4.1V11h-4.1L308.3,5L308.3,5z M314.5,25.9c0.2,2.3,2.3,6.5,8.8,6.5c5.6,0,8.3-3.5,8.3-7
	c0-3-2.1-5.6-6.4-6.5l-2.8-0.5c-0.9-0.2-1.6-0.7-1.6-1.5c0.1-1.1,1.1-1.9,2.2-1.8l0,0c1.5-0.1,2.8,1,3,2.5c0,0,0,0,0,0.1l5.3-1
	c-0.2-2.4-2.3-6.2-8.3-6.2c-4.6,0-8,3.1-8,6.9c0,2.9,1.8,5.4,6.2,6.4l2.4,0.5c1.5,0.3,2,1,2,1.7c0,0.9-0.8,1.8-2.4,1.8
	c-1.6,0.2-3.1-1-3.2-2.6c0-0.1,0-0.1,0-0.2L314.5,25.9z M363.8,1.5h-6.3v11.1c-0.5-0.8-2-2.1-5.6-2.1c-5.9,0-10.1,4.6-10.1,10.8
	c0,6.4,4.4,10.9,10.3,10.9c2.1,0.1,4.2-0.8,5.6-2.5c0,0.7,0.1,1.3,0.2,2h6.1c0-0.5-0.2-1.8-0.2-3.7V1.5z M348.3,21.4
	c0-3.5,2.2-5.1,4.7-5.1s4.7,1.7,4.7,5.1s-2.2,5.2-4.7,5.2C350.5,26.5,348.3,24.8,348.3,21.4z M366.8,26c0,3.3,2.6,6.3,7.2,6.3
	c2.3,0.1,4.6-1,5.8-2.9c0,0.8,0,1.6,0.2,2.3h5.7c-0.2-1.1-0.3-2.1-0.3-3.2V18.4c0-4.3-2.5-8-9.2-8c-6.1,0-8.9,3.9-9.1,6.9l5.5,1.1
	c0.2-1.8,1.7-3.2,3.5-3c2,0,3,1,3,2.3c0,0.7-0.4,1.3-1.5,1.4l-4.9,0.8C369.5,20.3,366.8,22.4,366.8,26z M375.5,27.8
	c-1.8,0-2.5-1-2.5-2.1c0-1.5,1-2.1,2.3-2.3l3.9-0.6v0.9C379.3,26.8,377.4,27.8,375.5,27.8L375.5,27.8z M387.9,25.9
	c0.2,2.3,2.3,6.5,8.8,6.5c5.6,0,8.3-3.5,8.3-7c0-3-2.1-5.6-6.4-6.5l-2.8-0.5c-0.9-0.2-1.6-0.7-1.6-1.5c0.1-1.1,1.1-1.9,2.2-1.8l0,0
	c1.5-0.1,2.8,1,3,2.5c0,0,0,0,0,0.1l5.3-1c-0.2-2.4-2.3-6.2-8.3-6.2c-4.6,0-8,3.1-8,6.9c0,2.9,1.8,5.4,6.2,6.4l2.4,0.5
	c1.5,0.3,2,1,2,1.7c0,0.9-0.8,1.8-2.4,1.8c-1.6,0.2-3.1-1-3.2-2.6c0-0.1,0-0.1,0-0.2L387.9,25.9z M415.1,25.9
	c0.2,2.3,2.3,6.5,8.8,6.5c5.6,0,8.3-3.5,8.3-7c0-3-2.1-5.6-6.4-6.5l-2.8-0.5c-0.9-0.2-1.6-0.7-1.6-1.5c0.1-1.1,1.1-1.9,2.2-1.8l0,0
	c1.5-0.1,2.8,1,3,2.5c0,0,0,0,0,0.1l5.3-1c-0.2-2.4-2.3-6.2-8.3-6.2c-4.6,0-8,3.1-8,6.9c0,2.9,1.8,5.4,6.2,6.4l2.4,0.5
	c1.5,0.3,2,1,2,1.7c0,0.9-0.8,1.8-2.4,1.8c-1.6,0.2-3.1-1-3.2-2.6c0-0.1,0-0.1,0-0.2L415.1,25.9z M433.7,26c0,3.3,2.6,6.3,7.2,6.3
	c2.3,0.1,4.6-1,5.8-2.9c0,0.8,0.1,1.6,0.2,2.3h5.7c-0.2-1.1-0.3-2.1-0.3-3.2V18.4c0-4.3-2.5-8-9.2-8c-6.1,0-8.9,3.9-9.1,6.9l5.5,1.1
	c0.2-1.8,1.7-3.2,3.5-3c2,0,3,1,3,2.3c0,0.7-0.4,1.3-1.5,1.4l-4.9,0.8C436.5,20.3,433.7,22.4,433.7,26L433.7,26z M442.5,27.8
	c-1.8,0-2.5-1-2.5-2.1c0-1.5,1-2.1,2.3-2.3l3.9-0.6v0.9C446.3,26.8,444.3,27.8,442.5,27.8L442.5,27.8z M462.9,31.8V1.5h-6.3v30.2
	L462.9,31.8L462.9,31.8z M465.8,26c0,3.3,2.6,6.3,7.2,6.3c2.3,0.1,4.6-1,5.8-2.9c0,0.8,0,1.6,0.2,2.3h5.7c-0.2-1.1-0.3-2.1-0.3-3.2
	V18.4c0-4.3-2.5-8-9.2-8c-6.1,0-8.9,3.9-9.1,6.9l5.5,1.1c0.2-1.8,1.7-3.2,3.5-3c2,0,3,1,3,2.3c0,0.7-0.4,1.3-1.5,1.4l-4.9,0.8
	C468.5,20.3,465.8,22.4,465.8,26z M474.5,27.8c-1.8,0-2.5-1-2.5-2.1c0-1.5,1-2.1,2.3-2.3l3.9-0.6v0.9
	C478.3,26.8,476.4,27.8,474.5,27.8z M486.8,25.9c0.2,2.3,2.3,6.5,8.8,6.5c5.6,0,8.3-3.5,8.3-7c0-3-2.1-5.6-6.4-6.5l-2.8-0.5
	c-0.9-0.2-1.6-0.7-1.6-1.5c0.1-1.1,1.1-1.9,2.2-1.8l0,0c1.5-0.1,2.8,1,3,2.5c0,0,0,0,0,0.1l5.3-1c-0.2-2.4-2.3-6.2-8.3-6.2
	c-4.6,0-8,3.1-8,6.9c0,2.9,1.8,5.4,6.2,6.4l2.4,0.5c1.5,0.3,2,1,2,1.7c0,0.9-0.8,1.8-2.4,1.8c-1.6,0.2-3.1-1-3.2-2.6
	c0-0.1,0-0.1,0-0.2L486.8,25.9z M63.2,47.8h-6.3v11.1c-0.5-0.8-2-2.1-5.6-2.1c-5.9,0-10.1,4.6-10.1,10.8c0,6.4,4.4,10.9,10.3,10.9
	c2.1,0.1,4.2-0.8,5.6-2.5c0,0.7,0.1,1.3,0.2,2h6.1c0-0.5-0.2-1.8-0.2-3.7V47.8z M47.6,67.6c0-3.5,2.2-5.1,4.7-5.1s4.7,1.7,4.7,5.1
	s-2.2,5.2-4.7,5.2S47.6,71,47.6,67.6L47.6,67.6z M72.4,65.2c0.2-2.1,2-3.6,4.1-3.5c3,0,4.1,1.9,4.2,3.5H72.4z M81.2,70.5
	c-0.6,1.8-2.3,2.9-4.2,2.7c-2.4,0.1-4.5-1.6-4.7-4h14.4c0.1-0.7,0.1-1.3,0.1-2c0-6.7-4-10.6-10.4-10.6C71,56.6,66,60.9,66,67.5
	c-0.3,5.8,4.2,10.8,10.1,11.1c0.3,0,0.5,0,0.8,0c5.3,0,8.6-3,9.6-6.6L81.2,70.5z M112.8,78.6c9.2,0,13.1-6.3,14.1-10.4l-6.3-1.8
	c-0.9,3.5-4.2,5.8-7.8,5.6c-4.6,0.1-8.4-3.6-8.5-8.2c0-0.2,0-0.4,0-0.5c0-6.2,4.5-9.1,8.4-9.1c5.2,0,7.1,3.5,7.6,5.5l6.2-2
	c-1-4.3-4.9-10-13.8-10c-8.3-0.1-15.2,6.5-15.3,14.9c0,0.2,0,0.4,0,0.6c-0.3,8.2,6.2,15.1,14.4,15.4
	C112.2,78.7,112.5,78.7,112.8,78.6L112.8,78.6z M128,72.3c0,3.3,2.6,6.3,7.2,6.3c2.3,0.1,4.6-1,5.8-2.9c0,0.8,0,1.6,0.2,2.3h5.7
	c-0.2-1.1-0.3-2.1-0.3-3.2V64.7c0-4.3-2.5-8-9.2-8c-6.1,0-8.9,3.9-9.1,6.9l5.5,1.1c0.2-1.8,1.7-3.2,3.5-3c2,0,3,1,3,2.3
	c0,0.7-0.4,1.3-1.5,1.4l-4.9,0.8C130.7,66.5,128,68.6,128,72.3z M136.7,74c-1.8,0-2.5-1-2.5-2.1c0-1.5,1-2.1,2.3-2.3l3.9-0.6v0.9
	C140.5,73.1,138.6,74,136.7,74L136.7,74z M149.1,72.1c0.2,2.3,2.3,6.5,8.8,6.5c5.6,0,8.3-3.5,8.3-7c0-3-2.1-5.6-6.4-6.5l-2.8-0.5
	c-0.9-0.2-1.6-0.7-1.6-1.5c0.1-1.1,1.1-1.9,2.2-1.8l0,0c1.5-0.1,2.8,1,3,2.5c0,0,0,0,0,0.1l5.3-1c-0.2-2.4-2.3-6.2-8.3-6.2
	c-4.6,0-8,3.1-8,6.9c0,2.9,1.8,5.4,6.2,6.4l2.4,0.5c1.5,0.3,2,1,2,1.7c0,0.9-0.8,1.8-2.4,1.8c-1.6,0.2-3.1-1-3.2-2.6
	c0-0.1,0-0.1,0-0.2L149.1,72.1z M175.4,78V57.3H169V78H175.4z M168.5,50.9c0,2,1.6,3.7,3.7,3.7c2.1,0,3.7-1.6,3.8-3.7l0,0
	c0-2.1-1.7-3.7-3.7-3.7l0,0C170.1,47.2,168.5,48.9,168.5,50.9L168.5,50.9z M186,66.1c-0.1-1.9,1.2-3.5,3.1-3.6c0.1,0,0.2,0,0.3,0
	c2.3,0,3.4,1.5,3.4,3.6V78h6.3V65c0-4.6-2.3-8.3-7.6-8.3c-2.3-0.1-4.5,1-5.8,2.9v-2.4h-6.1V78h6.3V66.1H186z M212.8,72.8
	c-2.4,0-4.7-1.7-4.7-5.2s2.3-5.1,4.7-5.1s4.7,1.6,4.7,5.1C217.4,71.1,215.2,72.8,212.8,72.8L212.8,72.8z M212.8,56.6
	c-5.9-0.2-10.9,4.5-11,10.4c0,0.2,0,0.4,0,0.6c-0.1,5.9,4.5,10.9,10.5,11c0.2,0,0.4,0,0.5,0c5.9,0.2,10.9-4.5,11-10.4
	c0-0.2,0-0.4,0-0.6c0.2-5.9-4.5-10.8-10.4-11C213.2,56.6,213,56.6,212.8,56.6L212.8,56.6z M234.4,72.3c0,3.3,2.6,6.3,7.2,6.3
	c2.3,0.1,4.6-1,5.8-2.9c0,0.8,0,1.6,0.2,2.3h5.7c-0.2-1.1-0.3-2.1-0.3-3.2V64.7c0-4.3-2.5-8-9.2-8c-6.1,0-8.9,3.9-9.1,6.9l5.5,1.1
	c0.2-1.8,1.7-3.2,3.5-3c2,0,3,1,3,2.3c0,0.7-0.4,1.3-1.5,1.4l-4.9,0.8C237.1,66.5,234.4,68.6,234.4,72.3L234.4,72.3z M243.1,74
	c-1.8,0-2.5-1-2.5-2.1c0-1.5,1-2.1,2.3-2.3l3.9-0.6v0.9C246.9,73.1,245,74,243.1,74L243.1,74z M255.6,79.2c0.6,3.7,4.4,7.4,10.4,7.4
	c7.8,0,11.1-5.2,11.1-11.1V57.3H271v2.2c-0.6-1.1-2.4-2.6-5.8-2.6c-5.7,0-9.6,4.7-9.6,10.1c0,5.8,4.1,10.1,9.6,10.1
	c3,0,4.8-1.2,5.6-2.3v1c0,3.8-2,5.3-5.1,5.3c-2.1,0.1-4-1.4-4.5-3.5L255.6,79.2z M266.4,71.6c-2.4,0.1-4.4-1.8-4.5-4.1
	c0-0.2,0-0.3,0-0.5c-0.1-2.4,1.8-4.5,4.2-4.6c0.1,0,0.2,0,0.3,0c2.4,0,4.4,1.9,4.4,4.3c0,0.1,0,0.2,0,0.3c0.2,2.3-1.6,4.4-3.9,4.6
	C266.8,71.6,266.6,71.6,266.4,71.6L266.4,71.6z M290.7,72.8c-2.4,0-4.7-1.7-4.7-5.2s2.3-5.1,4.7-5.1c2.4,0,4.7,1.6,4.7,5.1
	C295.3,71.1,293.1,72.8,290.7,72.8L290.7,72.8z M290.7,56.6c-5.9-0.2-10.9,4.5-11,10.4c0,0.2,0,0.4,0,0.6c-0.1,5.9,4.5,10.9,10.5,11
	c0.2,0,0.4,0,0.5,0c5.9,0.2,10.9-4.5,11-10.4c0-0.2,0-0.4,0-0.6c0.2-5.9-4.5-10.8-10.4-11C291.1,56.6,290.9,56.6,290.7,56.6
	L290.7,56.6z M317.7,57.3c-0.5-0.1-1.1-0.2-1.7-0.2c-2.2-0.1-4.3,1.1-5.4,3v-2.8h-6.1V78h6.3v-9c0-4.1,2.3-5.6,4.8-5.6
	c0.7,0,1.3,0.1,2,0.2L317.7,57.3z M319.2,72.3c0,3.3,2.6,6.3,7.2,6.3c2.3,0.1,4.6-1,5.8-2.9c0,0.8,0,1.6,0.2,2.3h5.7
	c-0.2-1.1-0.3-2.1-0.3-3.2V64.7c0-4.3-2.5-8-9.2-8c-6.1,0-8.9,3.9-9.1,6.9l5.5,1.1c0.2-1.8,1.7-3.2,3.5-3c2,0,3,1,3,2.3
	c0,0.7-0.4,1.3-1.5,1.4l-4.9,0.8C321.9,66.5,319.2,68.6,319.2,72.3z M327.9,74c-1.8,0-2.5-1-2.5-2.1c0-1.5,1-2.1,2.3-2.3l3.9-0.6
	v0.9C331.7,73.1,329.8,74,327.9,74L327.9,74z M360.6,72.8c-2.4,0-4.7-1.7-4.7-5.2s2.3-5.1,4.7-5.1c2.4,0,4.7,1.6,4.7,5.1
	C365.2,71.1,363,72.8,360.6,72.8L360.6,72.8z M360.6,56.6c-5.9-0.2-10.9,4.5-11,10.4c0,0.2,0,0.4,0,0.6c0,6.1,4.9,11,11,11
	s11-4.9,11-11l0,0c0.2-5.9-4.5-10.8-10.4-11C361,56.6,360.8,56.6,360.6,56.6L360.6,56.6z M380.8,66.1c-0.1-1.9,1.2-3.5,3.1-3.6
	c0.1,0,0.2,0,0.3,0c2.3,0,3.4,1.5,3.4,3.6V78h6.3V65c0-4.6-2.3-8.3-7.6-8.3c-2.3-0.1-4.5,1-5.8,2.9v-2.4h-6.1V78h6.3V66.1H380.8z
	 M404.3,78V47.8H398V78H404.3z M415,78V57.3h-6.3V78H415z M408.2,50.9c0,2.1,1.7,3.7,3.7,3.7c2.1,0,3.7-1.7,3.7-3.7
	c0-2.1-1.7-3.7-3.7-3.7l0,0C409.8,47.2,408.1,48.9,408.2,50.9L408.2,50.9z M425.7,66.1c-0.1-1.9,1.2-3.5,3.1-3.6c0.1,0,0.2,0,0.3,0
	c2.3,0,3.4,1.5,3.4,3.6V78h6.3V65c0-4.6-2.3-8.3-7.6-8.3c-2.3-0.1-4.5,1-5.8,2.9v-2.4h-6.1V78h6.3L425.7,66.1z M447.7,65.2
	c0.2-2.1,2-3.6,4.1-3.5c3,0,4.1,1.9,4.2,3.5H447.7z M456.5,70.5c-0.6,1.8-2.3,2.9-4.2,2.7c-2.4,0.1-4.5-1.6-4.7-4H462
	c0.1-0.7,0.1-1.3,0.1-2c0-6.7-4-10.6-10.4-10.6c-5.4,0-10.4,4.3-10.4,10.9c-0.3,5.8,4.2,10.8,10.1,11.1c0.3,0,0.5,0,0.8,0
	c5.3,0,8.6-3,9.6-6.6L456.5,70.5z M473.2,48.4h-7.6l1.5,20.3h4.7L473.2,48.4z M465.8,74.8c0,2,1.6,3.6,3.6,3.6s3.6-1.6,3.6-3.6
	s-1.6-3.6-3.6-3.6C467.4,71.2,465.8,72.8,465.8,74.8L465.8,74.8z"/>
<g>
	<path id="Caminho_3195" class="st0" d="M156.9,111.6V152h16.3c7.6,0,12.7-4.8,12.7-11.5c0.1-4.5-2.9-8.4-7.2-9.5
		c3.6-1.3,6-4.8,5.9-8.7c0-6.2-4.6-10.8-12.6-10.8L156.9,111.6L156.9,111.6z M165.7,127.8V119h4.8c3.5,0,5.3,1.7,5.3,4.3
		c0,2.7-2.1,4.4-5.2,4.4L165.7,127.8L165.7,127.8z M165.7,144.6v-9.5h5.6c3.5,0,5.6,1.9,5.6,4.7c0,2.9-2.1,4.7-5.6,4.7h-5.6V144.6z
		 M213.9,111.7h-9.7l-5.2,8.6h6.9L213.9,111.7z M203.1,144.9c-3.2,0-6.4-2.3-6.4-7.1s3.1-7,6.4-7c3.3,0,6.4,2.2,6.4,7
		C209.5,142.6,206.4,144.9,203.1,144.9z M203.1,122.8c-8.1-0.2-14.8,6.1-15,14.2c0,0.3,0,0.5,0,0.8c-0.2,8.1,6.2,14.8,14.3,15
		c0.2,0,0.5,0,0.7,0c8.1,0.2,14.8-6.2,15-14.2c0-0.3,0-0.5,0-0.8c0.2-8.1-6.1-14.8-14.2-15C203.6,122.8,203.4,122.8,203.1,122.8z
		 M230.7,135.8c0-2.8,1.8-5,4.7-5c3.1,0,4.6,2.1,4.6,4.9V152h8.7v-17.8c0-6.2-3.2-11.3-10.3-11.3c-2.9,0-6.4,1.3-7.9,4v-3.2H222V152
		h8.7V135.8z M272.4,152h8.3c-0.2-1.7-0.3-3.4-0.3-5.1v-23.3h-8.7v16.1c0.2,2.5-1.7,4.7-4.2,4.8c-0.2,0-0.4,0-0.6,0
		c-3.1,0-4.6-2.2-4.6-4.9v-16.1h-8.7v17.9c0,6,3.9,11.1,10.8,11.1c2.9,0,6.1-1,7.6-3.5C272.2,150.1,272.3,151.1,272.4,152z
		 M284.1,144c0.2,3.1,3.1,8.9,12,8.9c7.6,0,11.3-4.7,11.3-9.6c0-4.2-2.9-7.7-8.7-8.9l-3.8-0.7c-1.3-0.2-2.2-0.9-2.2-2.1
		c0-1.5,1.4-2.5,3.1-2.5c2-0.2,3.9,1.3,4,3.4v0.1l7.2-1.3c-0.3-3.3-3.1-8.4-11.3-8.4c-6.3,0-10.9,4.2-10.9,9.4c0,4,2.4,7.4,8.4,8.7
		l3.2,0.7c2.1,0.5,2.8,1.3,2.8,2.3c0,1.3-1.1,2.5-3.3,2.5c-3,0-4.3-1.9-4.4-3.8L284.1,144z M361.5,152v-21.6h-20.6v7.6H353
		c-0.5,2.3-3.3,6.6-10,6.6c-6.6,0-12.1-4.4-12.1-12.8c0-9,6.4-12.7,11.9-12.7c6.7,0,9.4,4.6,10,7.1l8.7-3
		c-1.8-5.6-7.1-12.5-18.7-12.5c-11.4,0-21,8.4-21,21.1c0,12.8,9.2,21,20.5,21c5.8,0,9.6-2.4,11.3-5l0.6,4.1L361.5,152z M384.8,123.7
		c-0.7-0.2-1.5-0.3-2.3-0.3c-2.3,0-5.9,0.9-7.4,4.1v-3.8h-8.4V152h8.7v-12.4c0-5.6,3.1-7.7,6.6-7.7c0.9,0,1.8,0.1,2.7,0.3
		L384.8,123.7L384.8,123.7z M386.8,144.2c0,4.5,3.6,8.6,9.8,8.6c3.8,0,6.5-1.6,8-4c0,1.1,0.1,2.1,0.3,3.2h7.8
		c-0.2-1.5-0.3-2.9-0.3-4.4v-13.9c0-5.8-3.4-10.9-12.5-10.9c-8.3,0-12.1,5.4-12.4,9.4l7.5,1.5c0.2-2.5,2.4-4.3,4.8-4.2
		c2.7,0,4.2,1.4,4.2,3.1c0,1-0.5,1.7-2.1,1.9l-6.7,1C390.6,136.3,386.8,139.2,386.8,144.2L386.8,144.2z M398.8,146.5
		c-2.4,0-3.4-1.4-3.4-2.9c0-2,1.4-2.9,3.2-3.1l5.4-0.9v1.3C403.9,145.3,401.3,146.5,398.8,146.5z M410.5,111.7h-9.7l-5.2,8.6h6.9
		L410.5,111.7z M428.1,115.4h-7.8v3.6c0,2.6-1.4,4.6-4.4,4.6h-1.4v7.6h5v12.1c0,5.6,3.6,9.1,9.5,9.1c1.5,0.1,3.1-0.2,4.5-0.8v-7.2
		c-0.7,0.2-1.5,0.3-2.3,0.3c-1.9,0-3.1-0.6-3.1-3v-10.6h5.5v-7.6h-5.5L428.1,115.4z M446.7,152v-28.3H438V152H446.7z M437.3,115
		c0,2.8,2.2,5,5,5.1c2.8,0,5.1-2.3,5.1-5.1l0,0c0-2.8-2.3-5.1-5.1-5.1l0,0C439.5,110,437.3,112.2,437.3,115L437.3,115z M450.2,144
		c0.2,3.1,3.1,8.9,12,8.9c7.6,0,11.3-4.7,11.3-9.6c0-4.2-2.9-7.7-8.7-8.9l-3.8-0.7c-1.3-0.2-2.2-0.9-2.2-2.1c0-1.5,1.4-2.5,3.1-2.5
		c2-0.2,3.9,1.3,4,3.4v0.1l7.2-1.3c-0.3-3.3-3.1-8.4-11.3-8.4c-6.3,0-10.9,4.2-10.9,9.4c0,4,2.4,7.4,8.4,8.7l3.2,0.7
		c2.1,0.5,2.8,1.3,2.8,2.3c0,1.3-1.1,2.5-3.3,2.5c-3,0-4.3-1.9-4.4-3.8L450.2,144z"/>
	<path id="Caminho_3194" class="st0" d="M81.8,126.8c-0.3-0.8-0.4-1.7-0.4-2.6c0-3.5,1.9-6.2,5.9-6.2c3.8,0,5.6,2.3,5.6,5
		c0,2.8-1.3,4.5-4.6,6.5l-6.9,4c-7.7,4.5-9.9,10.8-9.9,18.5h31.9v-8.5H84c0.7-1.2,1.6-2.2,2.8-2.8l8-4.7c5.4-3.2,8.3-7.6,8.3-13.1
		c0-7.5-6-13.8-15.6-13.8c-10.1,0-15.7,6.7-15.7,14.2c0,1.2,0.1,2.4,0.4,3.5L81.8,126.8z M115.9,131c-0.1-3.1,0.4-6.2,1.6-9.1
		c1-2.4,3.5-4,6.2-3.9c2.7-0.1,5.1,1.4,6.2,3.9c1.2,2.5,1.6,5.8,1.6,9.1c0,3.4-0.4,6.7-1.6,9.1c-1,2.5-3.5,4-6.2,3.9
		c-2.7,0.1-5.1-1.4-6.2-3.9C116.3,137.3,115.7,134.1,115.9,131z M105.6,131c0,5.2,0.8,10.4,3.7,14.8c2.8,4.1,7.4,7.2,14.2,7.2
		c6.9,0,11.5-3,14.3-7.2c2.9-4.4,3.7-9.6,3.7-14.8c0-5.2-0.8-10.4-3.7-14.8c-2.8-4.2-7.4-7.2-14.3-7.2c-6.8,0-11.5,3-14.2,7.2
		C106.4,120.6,105.6,125.8,105.6,131L105.6,131z"/>
	<path id="Caminho_3193" class="st0" d="M64,139.1c-1.5,1.1-3.4,1.7-5.2,1.6c-2.5,0.1-4.8-1-6.3-3h5.4l1.9-4.4h-8.9
		c0-0.4,0-0.9,0-1.2c0-0.4,0-0.7,0-1.1h9.8l2-4.3H52.2c1.4-2.2,3.9-3.4,6.5-3.4c1.7-0.1,3.5,0.3,5,1.2l2.4-5.2
		c-2.2-1.4-4.8-2-7.4-1.9c-6-0.1-11.5,3.6-13.6,9.2h-3.9v4.3h3c0,0.4,0,0.7,0,1.1c0,0.4,0,0.8,0,1.2h-3v4.4h3.9
		c2.1,5.6,7.4,9,13.7,9c3,0,5.9-0.9,8.2-2.7L64,139.1z"/>
</g>
</svg>
