<?xml version="1.0" encoding="utf-8"?>
<!-- Generator: Adobe Illustrator 21.1.0, SVG Export Plug-In . SVG Version: 6.00 Build 0)  -->
<svg version="1.1" id="Camada_1" xmlns="http://www.w3.org/2000/svg" xmlns:xlink="http://www.w3.org/1999/xlink" x="0px" y="0px"
	 viewBox="0 0 1083.5 270.2" style="enable-background:new 0 0 1083.5 270.2;" xml:space="preserve">
<style type="text/css">
	.st0{fill:#084A17;}
</style>
<g id="copy_push" transform="translate(-0.848 -3.763)">
	<path id="Caminho_1206" class="st0" d="M46.8,65.1h14.6L39,5H23.5L0.8,65.1h14.1l4.3-12.2h23.2L46.8,65.1z M31,20l7.2,20.8H23.6
		L31,20z M64.4,53.2c0.3,4.7,4.6,13.2,17.8,13.2c11.3,0,16.8-7,16.8-14.2c0-6.2-4.2-11.4-13-13.2l-5.6-1.1c-1.9-0.3-3.3-1.4-3.3-3.1
		c0-2.2,2.1-3.6,4.6-3.6c3.9,0,5.7,2.4,6,5.2l10.7-2c-0.4-4.9-4.7-12.5-16.9-12.5c-9.4,0-16.2,6.3-16.2,14c0,5.9,3.6,11,12.5,13
		l4.8,1.1c3.1,0.7,4.2,1.9,4.2,3.5c0,1.9-1.6,3.6-4.9,3.6c-4.4,0-6.4-2.8-6.6-5.7L64.4,53.2z M141.1,65.1V40.9
		c0-3.8,2.5-7.3,6.9-7.3c4.7,0,6.8,3.1,6.8,7.1v24.4h12.7V40.8c0-3.7,2.5-7.2,7-7.2s6.7,3.1,6.7,7.1v24.4h12.5V37.8
		c0-11.4-7.6-16.1-15.6-16.1c-5.7,0-9.7,1.9-13.1,6.6c-2.1-4.2-6.4-6.6-12.5-6.6c-4.6,0-10,2.4-12.1,6.1V23h-12.3v42.1H141.1z
		 M214.4,39c0.5-4.2,4.2-7.3,8.4-7.1c6.1,0,8.3,3.9,8.5,7.1H214.4z M232.2,50c-1.2,3.3-3.8,5.5-8.5,5.5c-5,0-9.3-3.4-9.6-8.1h29.3
		c0.2-1.3,0.3-2.7,0.3-4c0-13.6-8.1-21.6-21.1-21.6c-10.9,0-21,8.6-21,22.2c0,14.2,10.3,22.5,22,22.5c10.7,0,17.4-6.1,19.4-13.4
		L232.2,50z M264.9,65.1V3.8H252v61.4H264.9z M289.1,40.4c0.3-3.9,2.9-6.8,7-6.8c4.7,0,6.9,3.1,6.9,7.3v24.2h12.9V38.7
		c0-9.2-4.9-16.8-15.9-16.8c-3.7,0-8.1,1.2-10.8,3.8v-22h-12.9v61.4h12.9V40.4z M346,54.5c-4.8,0-9.5-3.5-9.5-10.5
		c0-7.1,4.7-10.4,9.5-10.4c4.9,0,9.5,3.3,9.5,10.4S350.9,54.5,346,54.5z M346,21.7c-12.5,0-22.4,9.2-22.4,22.3s9.8,22.4,22.4,22.4
		c12.6,0,22.4-9.3,22.4-22.4S358.6,21.7,346,21.7L346,21.7z M403.4,23c-1.1-0.3-2.2-0.4-3.4-0.4c-3.4,0-8.7,1.4-10.9,6.1V23h-12.5
		v42.1h12.9V46.7c0-8.4,4.7-11.4,9.8-11.4c1.4,0,2.7,0.1,4.1,0.4L403.4,23z M420.5,39c0.5-4.2,4.2-7.3,8.4-7.1
		c6.1,0,8.3,3.9,8.5,7.1H420.5z M438.3,50c-1.2,3.3-3.8,5.5-8.5,5.5c-5,0-9.3-3.4-9.6-8.1h29.3c0.2-1.3,0.3-2.7,0.3-4
		c0-13.6-8.1-21.6-21.1-21.6c-10.9,0-21,8.6-21,22.2c0,14.2,10.3,22.5,22,22.5c10.7,0,17.4-6.1,19.4-13.4L438.3,50z M454.6,53.2
		c0.3,4.7,4.6,13.2,17.8,13.2c11.3,0,16.8-7,16.8-14.2c0-6.2-4.2-11.4-13-13.2l-5.6-1.1c-1.9-0.3-3.3-1.4-3.3-3.1
		c0-2.2,2.1-3.6,4.6-3.6c3.9,0,5.7,2.4,6,5.2l10.7-1.9c-0.4-4.9-4.7-12.6-16.9-12.6c-9.4,0-16.2,6.3-16.2,14c0,5.9,3.6,11,12.5,13
		l4.8,1.1c3.1,0.7,4.2,1.9,4.2,3.5c0,1.9-1.6,3.6-4.9,3.6c-4.4,0-6.4-2.8-6.6-5.7L454.6,53.2z M560.7,19.8c-1.3-7-7-16-22-16
		c-11.5,0-21.5,8-21.5,19.3c0,8.9,6.2,15.7,16.4,17.6l8.2,1.5c4,0.8,6.4,3,6.4,6c0,3.7-3.2,6.3-8.5,6.3c-8.2,0-12-4.8-12.5-10.3
		l-12.3,3c0.8,8.5,8,19.2,24.6,19.2c14.3,0,22.2-9.6,22.2-19c0-8.6-5.9-15.9-17.4-18.1l-8.1-1.5c-4.2-0.8-5.9-2.9-5.9-5.8
		c0-3.3,3.2-6.4,8.2-6.4c7.3,0,9.6,4.7,10,7.5L560.7,19.8z M582.5,65.1V3.8h-12.9v61.4H582.5z M613.2,54.5c-4.8,0-9.5-3.5-9.5-10.5
		c0-7.1,4.7-10.4,9.5-10.4c4.9,0,9.5,3.3,9.5,10.4S618.1,54.5,613.2,54.5z M613.2,21.7c-12.5,0-22.4,9.2-22.4,22.3
		s9.8,22.4,22.4,22.4c12.6,0,22.4-9.3,22.4-22.4S625.8,21.7,613.2,21.7L613.2,21.7z M659.2,10.7h-11.5v5.4c0,3.9-2.1,6.9-6.5,6.9
		h-2.1v11.3h7.5v18.1c0,8.4,5.3,13.6,14.1,13.6c2.3,0.1,4.6-0.3,6.7-1.2V54c-1.1,0.3-2.2,0.4-3.4,0.4c-2.8,0-4.7-0.9-4.7-4.4V34.3
		h8.2V23h-8.2L659.2,10.7z M674.3,53.2c0.3,4.7,4.6,13.2,17.8,13.2c11.3,0,16.8-7,16.8-14.2c0-6.2-4.2-11.4-13-13.2l-5.6-1.1
		c-1.9-0.3-3.3-1.4-3.3-3.1c0-2.2,2.1-3.6,4.6-3.6c3.9,0,5.7,2.4,6,5.2l10.7-1.9c-0.4-4.9-4.7-12.6-16.9-12.6
		c-9.4,0-16.2,6.3-16.2,14c0,5.9,3.6,11,12.5,13l4.8,1.1c3.1,0.7,4.2,1.9,4.2,3.5c0,1.9-1.6,3.6-4.9,3.6c-4.4,0-6.4-2.8-6.6-5.7
		L674.3,53.2z M779.6,3.8h-12.7v22.5c-1-1.6-4.2-4.3-11.4-4.3c-12,0-20.4,9.4-20.4,22c0,13,9,22.1,20.8,22.1c5.1,0,9.3-2.1,11.3-5
		c0,1.4,0.1,2.7,0.3,4.1h12.4c-0.1-0.9-0.3-3.7-0.3-7.5L779.6,3.8z M748.1,44c0-7,4.5-10.4,9.5-10.4s9.5,3.4,9.5,10.4
		c0,6.9-4.5,10.5-9.5,10.5S748.1,51,748.1,44z M788.2,53.5c0,6.7,5.3,12.8,14.6,12.8c5.6,0,9.7-2.4,11.9-5.9c0,1.6,0.1,3.2,0.4,4.7
		h11.6c-0.3-2.2-0.5-4.3-0.5-6.5V38c0-8.6-5-16.3-18.6-16.3c-12.4,0-18,8-18.5,14l11.2,2.3c0.3-3.1,2.7-6.2,7.2-6.2
		c4.1,0,6.2,2.1,6.2,4.6c0,1.4-0.8,2.5-3.1,2.9l-9.9,1.5C793.8,41.8,788.2,46.1,788.2,53.5L788.2,53.5z M806,57c-3.6,0-5-2.1-5-4.3
		c0-3,2-4.2,4.7-4.7l8-1.3v1.9C813.7,55.1,809.8,57,806,57z M833.6,53.2c0.3,4.7,4.6,13.2,17.8,13.2c11.3,0,16.8-7,16.8-14.2
		c0-6.2-4.2-11.4-13-13.2l-5.6-1.1c-1.9-0.3-3.3-1.4-3.3-3.1c0-2.2,2.1-3.6,4.6-3.6c3.9,0,5.7,2.4,6,5.2l10.7-1.9
		c-0.4-4.9-4.7-12.5-16.9-12.5c-9.4,0-16.2,6.3-16.2,14c0,5.9,3.6,11,12.5,13l4.8,1.1c3.1,0.7,4.2,1.9,4.2,3.5
		c0,1.9-1.6,3.6-4.9,3.6c-4.4,0-6.4-2.8-6.6-5.7L833.6,53.2z M893.9,53.2c0.3,4.7,4.6,13.2,17.8,13.2c11.3,0,16.8-7,16.8-14.2
		c0-6.2-4.2-11.4-13-13.2l-5.6-1.1c-1.9-0.3-3.3-1.4-3.3-3.1c0-2.2,2.1-3.6,4.6-3.6c3.9,0,5.7,2.4,6,5.2l10.7-1.9
		c-0.4-4.9-4.7-12.6-16.9-12.6c-9.4,0-16.2,6.3-16.2,14c0,5.9,3.6,11,12.5,13l4.8,1.1c3.1,0.7,4.2,1.9,4.2,3.5
		c0,1.9-1.6,3.6-4.9,3.6c-4.4,0-6.4-2.8-6.6-5.7L893.9,53.2z M934.3,53.5c0,6.7,5.3,12.8,14.6,12.8c5.6,0,9.7-2.4,11.9-5.9
		c0,1.6,0.1,3.2,0.4,4.7h11.6c-0.3-2.2-0.5-4.3-0.5-6.5V38c0-8.6-5-16.3-18.6-16.3c-12.4,0-18,8-18.5,14l11.2,2.3
		c0.3-3.1,2.7-6.2,7.2-6.2c4.1,0,6.2,2.1,6.2,4.6c0,1.4-0.8,2.5-3.1,2.9l-9.9,1.5C939.8,41.8,934.3,46.1,934.3,53.5L934.3,53.5z
		 M952,57c-3.6,0-5-2.1-5-4.3c0-3,2-4.2,4.7-4.7l8-1.3v1.9C959.7,55.1,955.8,57,952,57z M996,65.1V3.8h-12.9v61.4H996z M1004.4,53.5
		c0,6.7,5.3,12.8,14.6,12.8c5.6,0,9.7-2.4,11.9-5.9c0,1.6,0.1,3.2,0.4,4.7h11.6c-0.3-2.2-0.5-4.3-0.5-6.5V38c0-8.6-5-16.3-18.6-16.3
		c-12.4,0-18,8-18.5,14l11.2,2.3c0.3-3.1,2.7-6.2,7.2-6.2c4.1,0,6.2,2.1,6.2,4.6c0,1.4-0.8,2.5-3.1,2.9l-9.9,1.5
		C1009.9,41.8,1004.4,46.1,1004.4,53.5z M1022.1,57c-3.6,0-5-2.1-5-4.3c0-3,2-4.2,4.7-4.7l8-1.3v1.9
		C1029.8,55.1,1025.9,57,1022.1,57z M1049.7,53.2c0.3,4.7,4.6,13.2,17.8,13.2c11.3,0,16.8-7,16.8-14.2c0-6.2-4.2-11.4-13-13.2
		l-5.6-1.1c-1.9-0.3-3.3-1.4-3.3-3.1c0-2.2,2.1-3.6,4.6-3.6c3.9,0,5.7,2.4,6,5.2l10.7-1.9c-0.4-4.9-4.7-12.5-16.9-12.5
		c-9.4,0-16.2,6.3-16.2,14c0,5.9,3.6,11,12.5,13l4.8,1.1c3.1,0.7,4.2,1.9,4.2,3.5c0,1.9-1.6,3.6-4.9,3.6c-4.4,0-6.4-2.8-6.6-5.7
		L1049.7,53.2z"/>
	<path id="Caminho_1207" class="st0" d="M47.1,89.7H34.4v22.5c-1-1.6-4.2-4.3-11.4-4.3c-12,0-20.4,9.4-20.4,22
		c0,13,9,22.1,20.9,22.1c5.1,0,9.3-2.1,11.3-5c0,1.4,0.1,2.7,0.3,4.1h12.4c-0.1-0.9-0.3-3.7-0.3-7.5V89.7z M15.6,130
		c0-7,4.5-10.4,9.5-10.4s9.5,3.4,9.5,10.4c0,6.9-4.5,10.5-9.5,10.5S15.6,136.9,15.6,130z M68.5,125c0.5-4.2,4.2-7.3,8.4-7.1
		c6.1,0,8.3,3.9,8.5,7.1H68.5z M86.3,135.9c-1.2,3.3-3.8,5.5-8.5,5.5c-5,0-9.3-3.4-9.6-8.1h29.3c0.2-1.3,0.3-2.7,0.3-4
		c0-13.6-8.1-21.6-21.1-21.6c-10.9,0-21,8.6-21,22.2c0,14.2,10.3,22.5,22,22.5c10.7,0,17.4-6.1,19.4-13.4L86.3,135.9z M155.5,152.4
		c18.6,0,26.6-12.7,28.6-21l-12.8-3.6c-1.2,4.3-5.3,11.3-15.8,11.3c-9,0-17.3-6.5-17.3-17.8c0-12.6,9.1-18.4,17.1-18.4
		c10.6,0,14.4,7,15.3,11.2l12.6-4c-1.9-8.6-9.9-20.3-28-20.3c-16.8,0-31,12.7-31,31.4S138.2,152.4,155.5,152.4z M188.9,139.5
		c0,6.7,5.3,12.8,14.6,12.8c5.6,0,9.7-2.4,11.9-5.9c0,1.6,0.1,3.2,0.4,4.7h11.6c-0.3-2.2-0.5-4.3-0.5-6.5V124
		c0-8.6-5-16.3-18.6-16.3c-12.4,0-18,8-18.5,14L201,124c0.3-3.1,2.7-6.2,7.2-6.2c4.1,0,6.2,2.1,6.2,4.6c0,1.4-0.8,2.5-3.1,2.9
		l-9.9,1.5C194.4,127.8,188.9,132,188.9,139.5L188.9,139.5z M206.6,143c-3.6,0-5-2.1-5-4.3c0-3,2-4.2,4.7-4.7l8-1.3v1.9
		C214.4,141.1,210.5,143,206.6,143L206.6,143z M234.3,139.1c0.3,4.7,4.6,13.2,17.8,13.2c11.3,0,16.8-7,16.8-14.2
		c0-6.2-4.2-11.4-13-13.2l-5.6-1.1c-1.9-0.3-3.3-1.4-3.3-3.1c0-2.2,2.1-3.6,4.6-3.6c3.9,0,5.7,2.4,6,5.2l10.7-1.9
		c-0.4-4.9-4.7-12.6-16.9-12.6c-9.4,0-16.2,6.3-16.2,14c0,5.9,3.6,11,12.5,13l4.8,1.1c3.1,0.7,4.2,1.9,4.2,3.5
		c0,1.9-1.6,3.6-4.9,3.6c-4.4,0-6.4-2.8-6.6-5.7L234.3,139.1z M290.1,151.1V109h-12.9v42.1H290.1z M276.1,96.1
		c0,4.1,3.3,7.5,7.5,7.5c4.2,0,7.6-3.3,7.6-7.5c0,0,0,0,0,0c0-4.2-3.4-7.6-7.6-7.5c0,0,0,0,0,0C279.5,88.6,276.1,92,276.1,96.1z
		 M314.3,126.9c0-4.2,2.7-7.4,7-7.4c4.7,0,6.9,3.1,6.9,7.3v24.2H341v-26.4c0-9.2-4.7-16.8-15.3-16.8c-4.3,0-9.5,1.9-11.8,5.9V109
		h-12.5v42.1h12.9L314.3,126.9z M371.2,140.5c-4.8,0-9.5-3.5-9.5-10.5c0-7.1,4.7-10.4,9.5-10.4c4.9,0,9.5,3.3,9.5,10.4
		C380.6,137.1,376.1,140.5,371.2,140.5L371.2,140.5z M371.2,107.7c-12.5,0-22.4,9.2-22.4,22.3s9.8,22.4,22.4,22.4
		c12.6,0,22.4-9.3,22.4-22.4S383.8,107.7,371.2,107.7L371.2,107.7z M420.1,139.5c0,6.7,5.3,12.8,14.6,12.8c5.6,0,9.7-2.4,11.9-5.9
		c0,1.6,0.1,3.2,0.4,4.7h11.6c-0.3-2.2-0.5-4.3-0.5-6.5V124c0-8.6-5-16.3-18.6-16.3c-12.4,0-18,8-18.5,14l11.2,2.3
		c0.3-3.1,2.7-6.2,7.2-6.2c4.1,0,6.2,2.1,6.2,4.6c0,1.4-0.8,2.5-3.1,2.9l-9.9,1.5C425.7,127.8,420.1,132,420.1,139.5L420.1,139.5z
		 M437.9,143c-3.6,0-5-2.1-5-4.3c0-3,2-4.2,4.7-4.7l8-1.3v1.9C445.6,141.1,441.7,143,437.9,143L437.9,143z M465.7,153.5
		c1.2,7.5,8.9,15,21,15c15.8,0,22.5-10.5,22.5-22.6V109H497v4.5c-1.2-2.2-4.8-5.3-11.7-5.3c-11.5,0-19.6,9.5-19.6,20.6
		c0,11.7,8.4,20.5,19.6,20.5c6.1,0,9.7-2.5,11.3-4.7v1.9c0,7.6-4,10.8-10.4,10.8c-4.3,0.2-8.2-2.8-9.1-7L465.7,153.5z M487.7,138.1
		c-5.2,0-9.1-3.6-9.1-9.3c-0.2-4.9,3.6-9.1,8.5-9.3c0.2,0,0.4,0,0.5,0c4.8,0,9,3.6,9,9.3C496.7,134.6,493,138.1,487.7,138.1z
		 M539.5,140.5c-4.8,0-9.5-3.5-9.5-10.5c0-7.1,4.7-10.4,9.5-10.4c4.9,0,9.5,3.3,9.5,10.4C549,137.1,544.4,140.5,539.5,140.5
		L539.5,140.5z M539.5,107.7c-12.5,0-22.4,9.2-22.4,22.3s9.8,22.4,22.4,22.4c12.6,0,22.4-9.3,22.4-22.4S552.1,107.7,539.5,107.7
		L539.5,107.7z M597,109c-1.1-0.3-2.2-0.4-3.4-0.4c-3.4,0-8.7,1.4-10.9,6.1V109h-12.5v42.1H583v-18.4c0-8.4,4.7-11.4,9.8-11.4
		c1.4,0,2.7,0.1,4.1,0.4L597,109z M602.5,139.5c0,6.7,5.3,12.8,14.6,12.8c5.6,0,9.7-2.4,11.9-5.9c0,1.6,0.1,3.2,0.4,4.7H641
		c-0.3-2.2-0.5-4.3-0.5-6.5V124c0-8.6-5-16.3-18.6-16.3c-12.4,0-18,8-18.5,14l11.2,2.3c0.3-3.1,2.7-6.2,7.2-6.2
		c4.1,0,6.2,2.1,6.2,4.6c0,1.4-0.8,2.5-3.1,2.9l-9.9,1.5C608.1,127.8,602.5,132,602.5,139.5L602.5,139.5z M620.3,143
		c-3.6,0-5-2.1-5-4.3c0-3,2-4.2,4.7-4.7l8-1.3v1.9C628,141.1,624.1,143,620.3,143L620.3,143z M691.5,140.5c-4.8,0-9.5-3.5-9.5-10.5
		c0-7.1,4.7-10.4,9.5-10.4c4.9,0,9.5,3.3,9.5,10.4S696.5,140.5,691.5,140.5L691.5,140.5z M691.5,107.7c-12.5,0-22.4,9.2-22.4,22.3
		s9.8,22.4,22.4,22.4c12.6,0,22.4-9.3,22.4-22.4C713.9,116.9,704.2,107.7,691.5,107.7L691.5,107.7z M735.1,126.9
		c0-4.2,2.7-7.4,7-7.4c4.7,0,6.9,3.1,6.9,7.3v24.2h12.9v-26.4c0-9.2-4.7-16.8-15.3-16.8c-4.3,0-9.5,1.9-11.8,5.9V109h-12.5v42.1
		h12.9V126.9z M785.5,151.1V89.7h-12.9v61.4H785.5z M809.8,151.1V109h-12.9v42.1H809.8z M795.8,96.1c0,4.1,3.3,7.5,7.5,7.5
		c4.2,0,7.6-3.3,7.6-7.5c0,0,0,0,0,0c0-4.2-3.4-7.6-7.6-7.5c0,0,0,0,0,0C799.1,88.6,795.8,92,795.8,96.1z M833.9,126.9
		c0-4.2,2.7-7.4,7-7.4c4.7,0,6.9,3.1,6.9,7.3v24.2h12.9v-26.4c0-9.2-4.7-16.8-15.3-16.8c-4.3,0-9.5,1.9-11.8,5.9V109H821v42.1h12.9
		V126.9z M881.2,125c0.5-4.2,4.2-7.3,8.4-7.1c6.1,0,8.3,3.9,8.5,7.1H881.2z M899,135.9c-1.2,3.3-3.8,5.5-8.5,5.5
		c-5,0-9.3-3.4-9.6-8.1h29.3c0.2-1.3,0.3-2.7,0.3-4c0-13.6-8.1-21.6-21.1-21.6c-10.9,0-21,8.6-21,22.2c0,14.2,10.3,22.5,22,22.5
		c10.7,0,17.4-6.1,19.4-13.4L899,135.9z M935.6,91h-15.4l3,41.3h9.5L935.6,91z M920.5,144.7c0,4,3.3,7.3,7.3,7.3c0,0,0,0,0,0
		c4,0,7.3-3.2,7.4-7.3c0-4.1-3.3-7.4-7.4-7.4C923.7,137.3,920.5,140.6,920.5,144.7C920.5,144.6,920.5,144.6,920.5,144.7z"/>
	<g id="Agrupar_769">
		<path id="Caminho_1210" class="st0" d="M30.2,255.2c-1.8,1.3-4,2-6.2,1.9c-2.9,0.1-5.7-1.2-7.4-3.6H23l2.3-5.2H14.7
			c-0.1-0.5-0.1-1-0.1-1.4c0-0.4,0-0.9,0.1-1.3h11.6l2.4-5.2H16.3c1.7-2.6,4.6-4.1,7.6-4c2.1-0.1,4.1,0.4,5.9,1.5l2.9-6.1
			c-2.6-1.6-5.7-2.4-8.8-2.3c-7.1-0.1-13.6,4.2-16.2,10.9H3.1v5.2h3.6c0,0.4-0.1,0.9-0.1,1.3c0,0.5,0,1,0.1,1.4H3.1v5.2h4.6
			c2.5,6.7,8.7,10.7,16.3,10.7c3.5,0,6.9-1.1,9.7-3.2L30.2,255.2z"/>
		<path id="Caminho_1209" class="st0" d="M51.2,240.1c-0.3-1.1-0.5-2.2-0.5-3.3c0-4.5,2.5-8,7.6-8c4.8,0,7.2,3,7.2,6.4
			c0,3.6-1.7,5.8-5.9,8.3l-8.8,5.1c-9.9,5.7-12.7,13.9-12.7,23.7H79v-11H54.1c0.8-1.5,2.1-2.8,3.7-3.7l10.2-6.1
			c6.9-4.1,10.6-9.8,10.6-16.8c0-9.6-7.6-17.7-20-17.7c-13,0-20.2,8.6-20.2,18.3c0,1.5,0.2,3,0.5,4.5L51.2,240.1z M97.4,245.5
			c0-4.3,0.5-8.5,2-11.7c1.3-3.1,4.5-5.1,7.9-5c3.4-0.2,6.6,1.8,7.9,5c1.6,3.2,2.1,7.4,2.1,11.7c0,4.3-0.5,8.5-2.1,11.7
			c-1.3,3.1-4.5,5.1-7.9,5c-3.4,0.1-6.5-1.8-7.9-5C97.9,254,97.4,249.8,97.4,245.5z M84.3,245.5c0,6.6,1,13.4,4.7,19
			c3.6,5.3,9.5,9.2,18.3,9.2c8.8,0,14.8-3.9,18.3-9.2c3.7-5.6,4.7-12.4,4.7-19c0-6.6-1-13.4-4.7-19c-3.6-5.4-9.5-9.2-18.3-9.2
			c-8.7,0-14.7,3.8-18.3,9.2C85.3,232.1,84.3,238.8,84.3,245.5L84.3,245.5z"/>
		<g id="Agrupar_768">
			<path id="Caminho_1208" class="st0" d="M157.5,218.2v54.6h22c10.3,0,17.1-6.5,17.1-15.5c0.2-6-3.9-11.3-9.7-12.8
				c4.9-1.8,8.1-6.5,8-11.7c0-8.4-6.2-14.6-17-14.6L157.5,218.2z M169.3,240v-11.8h6.5c4.8,0,7.2,2.3,7.2,5.9c0,3.7-2.8,5.9-7,5.9
				H169.3z M169.3,262.8V250h7.6c4.8,0,7.5,2.6,7.5,6.4c0,3.9-2.8,6.4-7.5,6.4H169.3z M236.7,218.3h-13.1l-7.1,11.6h9.3L236.7,218.3
				z M222.1,263.1c-4.4,0-8.6-3.2-8.6-9.5c0-6.5,4.2-9.5,8.6-9.5c4.5,0,8.6,3,8.6,9.5C230.8,260.1,226.6,263.1,222.1,263.1z
				 M222.1,233.3c-11.4,0-20.3,8.4-20.3,20.3c0,11.9,8.9,20.3,20.3,20.3c11.5,0,20.3-8.5,20.3-20.3
				C242.5,241.7,233.6,233.3,222.1,233.3L222.1,233.3z M261.7,250.8c0-3.9,2.5-6.7,6.3-6.7c4.2,0,6.2,2.8,6.2,6.6v22H286v-24
				c0-8.4-4.3-15.2-13.9-15.2c-3.9,0-8.6,1.8-10.7,5.4v-4.4H250v38.3h11.7L261.7,250.8z M320.5,272.8h11.2c-0.3-2.3-0.4-4.6-0.4-6.9
				v-31.4h-11.7v21.8c0,3.9-2.5,6.5-6.4,6.5c-4.2,0-6.2-2.9-6.2-6.6v-21.7h-11.7v24.2c0,8.2,5.2,14.9,14.6,14.9
				c3.9,0,8.2-1.4,10.2-4.7C320.2,270.2,320.3,271.5,320.5,272.8z M338.5,261.9c0.3,4.2,4.2,12,16.2,12c10.2,0,15.2-6.4,15.2-12.9
				c0-5.6-3.9-10.4-11.8-12l-5.1-1c-1.7-0.3-3-1.2-3-2.8c0-2,1.9-3.3,4.2-3.3c3.5,0,5.2,2.2,5.5,4.7l9.7-1.8
				c-0.4-4.5-4.2-11.4-15.3-11.4c-8.5,0-14.7,5.7-14.7,12.7c0,5.4,3.2,10,11.4,11.8l4.4,1c2.8,0.6,3.8,1.8,3.8,3.2
				c0,1.7-1.5,3.3-4.5,3.3c-4,0-5.9-2.5-6-5.2L338.5,261.9z M447.7,272.8v-29.2h-27.8v10.3h16.4c-0.7,3.1-4.5,8.9-13.5,8.9
				c-8.9,0-16.4-5.9-16.4-17.3c0-12.2,8.7-17.1,16.1-17.1c9.1,0,12.7,6.2,13.6,9.5l11.7-4.1c-2.4-7.6-9.6-16.9-25.3-16.9
				c-15.4,0-28.4,11.3-28.4,28.5c0,17.2,12.5,28.4,27.6,28.4c7.8,0,12.9-3.2,15.3-6.7l0.8,5.5H447.7z M481.5,234.5
				c-1-0.3-2-0.4-3.1-0.4c-3.1,0-7.9,1.2-9.9,5.5v-5.2h-11.3v38.3h11.7v-16.7c0-7.6,4.2-10.4,8.9-10.4c1.2,0,2.5,0.1,3.7,0.4
				L481.5,234.5z M486.6,262.2c0,6.1,4.9,11.6,13.2,11.6c5.1,0,8.8-2.2,10.8-5.4c0,1.4,0.1,2.9,0.4,4.3h10.5c-0.3-2-0.5-3.9-0.5-5.9
				v-18.7c0-7.9-4.5-14.8-16.9-14.8c-11.2,0-16.3,7.2-16.8,12.7l10.2,2.1c0.3-3.3,3.2-5.8,6.5-5.6c3.7,0,5.6,1.9,5.6,4.2
				c0,1.3-0.7,2.3-2.8,2.6l-9,1.4C491.6,251.6,486.6,255.4,486.6,262.2L486.6,262.2z M502.7,265.4c-3.2,0-4.5-1.9-4.5-3.9
				c0-2.7,1.8-3.8,4.3-4.2l7.2-1.2v1.7C509.7,263.7,506.1,265.4,502.7,265.4z M518.5,218.3h-13.1l-7.1,11.6h9.3L518.5,218.3z
				 M544.5,223.3h-10.5v4.9c0,3.5-1.9,6.2-5.9,6.2h-1.9v10.2h6.8v16.4c0,7.6,4.9,12.3,12.8,12.3c2.1,0.1,4.2-0.3,6.1-1.1v-9.7
				c-1,0.2-2,0.4-3.1,0.4c-2.5,0-4.2-0.8-4.2-4v-14.3h7.5v-10.2h-7.5L544.5,223.3z M572,272.8v-38.3h-11.7v38.3H572z M559.3,222.8
				c0,3.8,3,6.8,6.8,6.9c3.8,0,6.9-3,6.9-6.8c0,0,0,0,0,0c0-3.8-3.1-6.9-6.9-6.9c0,0,0,0,0,0C562.3,216,559.3,219,559.3,222.8z
				 M579.1,261.9c0.3,4.2,4.2,12,16.2,12c10.2,0,15.2-6.4,15.2-12.9c0-5.6-3.8-10.4-11.8-12l-5.1-1c-1.7-0.3-3-1.2-3-2.8
				c0-2,1.9-3.3,4.2-3.3c3.5,0,5.2,2.2,5.5,4.7l9.7-1.8c-0.4-4.5-4.2-11.4-15.3-11.4c-8.5,0-14.7,5.7-14.7,12.7
				c0,5.4,3.2,10,11.4,11.8l4.4,1c2.8,0.6,3.8,1.8,3.8,3.2c0,1.7-1.5,3.3-4.5,3.3c-4,0-5.9-2.5-6-5.2L579.1,261.9z"/>
		</g>
	</g>
</g>
</svg>
