<?xml version="1.0" encoding="utf-8"?>
<!-- Generator: Adobe Illustrator 21.1.0, SVG Export Plug-In . SVG Version: 6.00 Build 0)  -->
<svg version="1.1" id="copy" xmlns="http://www.w3.org/2000/svg" xmlns:xlink="http://www.w3.org/1999/xlink" x="0px" y="0px"
	 viewBox="0 0 425.2 271.5" style="enable-background:new 0 0 425.2 271.5;" xml:space="preserve">
<style type="text/css">
	.st0{fill:#084A17;}
</style>
<path id="Caminho_3190" class="st0" d="M27.1,36.1h8.6L22.5,0.7h-9.1L0,36.1h8.3l2.6-7.2h13.7L27.1,36.1z M17.7,9.5L22,21.7h-8.6
	L17.7,9.5z M35.9,29.1c0.2,2.8,2.7,7.8,10.4,7.8c6.7,0,9.9-4.2,9.9-8.4c0-3.6-2.5-6.7-7.7-7.8l-3.3-0.6c-1.1-0.2-1.9-0.8-1.9-1.8
	c0-1.3,1.2-2.1,2.7-2.1c1.8-0.2,3.3,1.1,3.5,2.9c0,0,0,0.1,0,0.1v0.1l6.3-1.1c-0.3-2.9-2.8-7.4-9.9-7.4c-5.5,0-9.5,3.7-9.5,8.2
	c0,3.5,2.1,6.5,7.4,7.7l2.9,0.6c1.8,0.4,2.4,1.1,2.4,2c0,1.1-0.9,2.1-2.9,2.1c-2,0.2-3.7-1.2-3.9-3.2c0,0,0-0.1,0-0.1L35.9,29.1z
	 M78.1,36.1V21.9c-0.1-2.2,1.5-4.2,3.8-4.3c0,0,0,0,0,0h0.4c2.8,0,4,1.8,4,4.2v14.4h7.5V21.8c-0.1-2.2,1.6-4.1,3.8-4.3H98
	c2.7,0,4,1.8,4,4.2v14.4h7.3v-16c0-6.7-4.5-9.5-9.1-9.5c-3.1-0.2-6,1.3-7.7,3.9c-1.2-2.4-3.8-3.9-7.3-3.9c-2.7,0-5.9,1.4-7.1,3.6
	v-2.9h-7.2V36C70.9,36,78.1,36.1,78.1,36.1z M119.7,20.8c0.3-2.5,2.4-4.3,4.9-4.2c3.6,0,4.9,2.3,5,4.2H119.7z M130.2,27.2
	c-0.7,1.9-2.2,3.2-5,3.2c-3,0-5.5-2-5.6-4.8h17.3c0.1-0.8,0.2-1.5,0.2-2.3c0-7.9-4.7-12.8-12.4-12.8c-6.5,0-12.4,5.1-12.4,13
	c0,8.3,6.1,13.2,12.9,13.2c6.3,0,10.3-3.6,11.5-7.9L130.2,27.2z M148,36.1V0h-7.6v36.1H148z M160.7,21.5c0-2.2,1.8-4,4-4h0.1
	c2.8,0,4.1,1.8,4.1,4.3V36h7.6V20.5c0-5.5-2.9-9.9-9.4-9.9c-2.3-0.1-4.6,0.7-6.4,2.2V0H153v36.1h7.6L160.7,21.5z M192.7,29.8
	c-2.9,0-5.5-2-5.5-6.2s2.8-6.1,5.5-6.1c2.9,0,5.5,1.9,5.5,6.1S195.6,29.8,192.7,29.8z M192.7,10.5c-7.1-0.2-13,5.4-13.2,12.5v0.6
	c-0.1,7.1,5.5,13,12.6,13.2h0.6c7.1,0.2,13-5.4,13.2-12.5v-0.7c0.2-7.1-5.4-12.9-12.5-13.1L192.7,10.5z M225,11.4
	c-0.6-0.2-1.3-0.3-2-0.3c-2,0-5.2,0.8-6.5,3.6v-3.3h-7.3v24.8h7.6V25.3c0-4.9,2.8-6.7,5.8-6.7c0.8,0,1.6,0.1,2.4,0.3V11.4z
	 M233.6,20.8c0.3-2.5,2.4-4.3,4.9-4.2c3.6,0,4.9,2.3,5,4.2H233.6z M244.1,27.2c-0.7,1.9-2.2,3.2-5,3.2c-3,0-5.5-2-5.6-4.8h17.3
	c0.1-0.8,0.2-1.5,0.2-2.3c0-7.9-4.7-12.8-12.4-12.8c-6.5,0-12.4,5.1-12.4,13c0,8.3,6.1,13.2,12.9,13.2c6.3,0,10.3-3.6,11.5-7.9
	L244.1,27.2z M252.2,29.1c0.2,2.8,2.7,7.8,10.4,7.8c6.7,0,9.9-4.2,9.9-8.4c0-3.6-2.5-6.7-7.7-7.8l-3.3-0.6c-1.1-0.2-1.9-0.8-1.9-1.8
	c0-1.3,1.2-2.1,2.7-2.1c1.8-0.2,3.3,1.1,3.5,2.9c0,0,0,0.1,0,0.1v0.1l6.3-1.1c-0.3-2.9-2.8-7.4-9.9-7.4c-5.5,0-9.5,3.7-9.5,8.2
	c0,3.5,2.1,6.5,7.4,7.7l2.9,0.6c1.8,0.4,2.4,1.1,2.4,2c0,1.1-0.9,2.1-2.9,2.1c-2,0.2-3.7-1.2-3.9-3.2c0,0,0-0.1,0-0.1L252.2,29.1z
	 M311.6,9.4c-0.7-4.2-4.1-9.4-12.9-9.4C291.9,0,286,4.7,286,11.4c0,5.3,3.6,9.2,9.6,10.4l4.8,0.9c2.3,0.5,3.8,1.8,3.8,3.5
	c0,2.2-1.9,3.7-5,3.7c-4.8,0-7-2.9-7.3-6.1l-7.2,1.8c0.5,5,4.7,11.4,14.5,11.4c8.4,0,13-5.6,13-11.2c0-5.1-3.5-9.4-10.3-10.6
	l-4.7-0.9c-2.4-0.5-3.5-1.7-3.5-3.4c0-1.9,1.9-3.8,4.8-3.8c4.3,0,5.6,2.8,5.9,4.4L311.6,9.4z M323,36.1V0h-7.6v36.1H323z
	 M339.6,29.8c-2.9,0-5.5-2-5.5-6.2s2.8-6.1,5.5-6.1c2.9,0,5.5,1.9,5.5,6.1S342.5,29.8,339.6,29.8z M339.6,10.5
	c-7.1-0.2-13,5.4-13.2,12.5v0.6c-0.1,7.1,5.5,13,12.6,13.2h0.6c7.1,0.2,13-5.4,13.2-12.5v-0.7c0.2-7.1-5.4-12.9-12.5-13.1
	L339.6,10.5z M365.2,4.1h-6.7v3.2c0,2.3-1.3,4.1-3.9,4.1h-1.2V18h4.4v10.6c0,4.9,3.1,7.9,8.3,7.9c1.4,0.1,2.7-0.2,4-0.7v-6.3
	c-0.6,0.2-1.3,0.3-2,0.3c-1.7,0-2.8-0.6-2.8-2.6V18h4.8v-6.7h-4.8L365.2,4.1L365.2,4.1z M372.6,29.1c0.2,2.8,2.7,7.8,10.4,7.8
	c6.7,0,9.9-4.2,9.9-8.4c0-3.6-2.5-6.7-7.7-7.8l-3.3-0.6c-1.1-0.2-1.9-0.8-1.9-1.8c0-1.3,1.2-2.1,2.7-2.1c1.8-0.2,3.3,1.1,3.5,2.9
	c0,0,0,0.1,0,0.1v0.1l6.3-1.1c-0.3-2.9-2.8-7.4-9.9-7.4c-5.5,0-9.5,3.7-9.5,8.2c0,3.5,2.1,6.5,7.4,7.7l2.9,0.6
	c1.8,0.4,2.4,1.1,2.4,2c0,1.1-0.9,2.1-2.9,2.1c-2,0.2-3.7-1.2-3.9-3.2c0,0,0-0.1,0-0.1L372.6,29.1z M27.3,49.9h-7.5v13.3
	c-0.6-0.9-2.4-2.6-6.7-2.6c-7,0-12,5.5-12,12.9c0,7.7,5.3,13,12.3,13c3,0,5.5-1.2,6.7-3c0,0.8,0.1,1.6,0.2,2.4h7.3
	c-0.2-1.5-0.2-2.9-0.2-4.4C27.4,81.5,27.3,49.9,27.3,49.9z M8.7,73.7c0-4.2,2.7-6.1,5.5-6.1s5.5,2,5.5,6.1s-2.7,6.2-5.5,6.2
	S8.7,77.7,8.7,73.7z M30.9,79.2c0,4,3.1,7.6,8.6,7.6c2.8,0.2,5.5-1.2,7-3.5c0,0.9,0.1,1.9,0.3,2.8h6.8c-0.2-1.3-0.3-2.6-0.3-3.9V70
	c0-5.1-3-9.6-11-9.6c-7.3,0-10.5,4.7-10.9,8.2L38,70c0.2-2.2,2.1-3.8,4.3-3.6c0,0,0,0,0,0c2.4,0,3.6,1.2,3.6,2.7
	c0,0.8-0.5,1.5-1.8,1.7l-5.8,0.9C34.1,72.3,30.9,74.8,30.9,79.2z M41.3,81.2c-2.1,0-3-1.2-3-2.6c0-1.8,1.2-2.5,2.8-2.8l4.7-0.7v1.1
	C45.8,80.1,43.5,81.2,41.3,81.2z M56,79c0.2,2.8,2.7,7.8,10.4,7.8c6.7,0,9.9-4.2,9.9-8.4c0-3.6-2.5-6.7-7.7-7.8L65.3,70
	c-1.1-0.2-1.9-0.8-1.9-1.8c0-1.3,1.2-2.1,2.7-2.1c1.8-0.2,3.3,1.1,3.5,2.9c0,0,0,0.1,0,0.1V69l6.3-1.1c-0.3-2.9-2.8-7.4-9.9-7.4
	c-5.5,0-9.5,3.7-9.5,8.2c0,3.5,2.1,6.5,7.4,7.7l2.9,0.6c1.8,0.4,2.4,1.1,2.4,2c0,1.1-0.9,2.1-2.9,2.1c-2,0.2-3.7-1.2-3.9-3.2
	c0,0,0-0.1,0-0.1L56,79z M88.6,79c0.2,2.8,2.7,7.8,10.4,7.8c6.7,0,9.9-4.2,9.9-8.4c0-3.6-2.5-6.7-7.7-7.8L98,70
	c-1.1-0.2-1.9-0.8-1.9-1.8c0-1.3,1.2-2.1,2.7-2.1c1.8-0.2,3.3,1.1,3.5,2.9c0,0,0,0.1,0,0.1V69l6.3-1.1c-0.3-2.9-2.8-7.4-9.9-7.4
	c-5.5,0-9.5,3.7-9.5,8.2c0,3.5,2.1,6.5,7.4,7.7l2.9,0.6c1.8,0.4,2.4,1.1,2.4,2c0,1.1-0.9,2.1-2.9,2.1c-2,0.2-3.7-1.2-3.9-3.2
	c0,0,0-0.1,0-0.1L88.6,79z M110.8,79.2c0,4,3.1,7.6,8.6,7.6c2.8,0.2,5.5-1.2,7-3.5c0,0.9,0.1,1.9,0.3,2.8h6.8
	c-0.2-1.3-0.3-2.6-0.3-3.9V70c0-5.1-3-9.6-11-9.6c-7.3,0-10.5,4.7-10.9,8.2l6.6,1.4c0.2-2.2,2.1-3.8,4.3-3.6c0,0,0,0,0,0
	c2.4,0,3.6,1.2,3.6,2.7c0,0.8-0.5,1.5-1.8,1.7l-5.8,0.9C114,72.3,110.8,74.8,110.8,79.2L110.8,79.2z M121.2,81.2c-2.1,0-3-1.2-3-2.6
	c0-1.8,1.2-2.5,2.8-2.8l4.7-0.7v1.1C125.8,80.1,123.6,81.2,121.2,81.2z M145.6,86V49.9H138V86H145.6z M149.2,79.2
	c0,4,3.1,7.6,8.6,7.6c2.8,0.2,5.5-1.2,7-3.5c0,0.9,0.1,1.9,0.3,2.8h6.8c-0.2-1.3-0.3-2.6-0.3-3.9V70c0-5.1-3-9.6-11-9.6
	c-7.3,0-10.5,4.7-10.9,8.2l6.6,1.4c0.2-2.2,2.1-3.8,4.3-3.6c0,0,0,0,0,0c2.4,0,3.6,1.2,3.6,2.7c0,0.8-0.5,1.5-1.8,1.7l-5.8,0.9
	C152.4,72.3,149.2,74.8,149.2,79.2L149.2,79.2z M159.5,81.2c-2.1,0-3-1.2-3-2.6c0-1.8,1.2-2.5,2.8-2.8l4.7-0.7v1.1
	C164.1,80.1,161.8,81.2,159.5,81.2z M174.3,79c0.2,2.8,2.7,7.8,10.4,7.8c6.7,0,9.9-4.2,9.9-8.4c0-3.6-2.5-6.7-7.7-7.8l-3.3-0.6
	c-1.1-0.2-1.9-0.8-1.9-1.8c0-1.3,1.3-2.1,2.7-2.1c1.8-0.2,3.3,1.1,3.5,2.9c0,0,0,0.1,0,0.1V69l6.3-1.1c-0.3-2.9-2.8-7.4-9.9-7.4
	c-5.5,0-9.5,3.7-9.5,8.2c0,3.5,2.1,6.5,7.4,7.7l2.9,0.6c1.8,0.4,2.4,1.1,2.4,2c0,1.1-0.9,2.1-2.9,2.1c-2,0.2-3.7-1.2-3.9-3.2
	c0,0,0-0.1,0-0.1L174.3,79z M233.3,49.9h-7.5v13.3c-0.6-0.9-2.4-2.6-6.7-2.6c-7,0-12,5.5-12,12.9c0,7.7,5.3,13,12.3,13
	c3,0,5.5-1.2,6.7-3c0,0.8,0.1,1.6,0.2,2.4h7.3c-0.2-1.5-0.2-2.9-0.2-4.4L233.3,49.9z M214.8,73.7c0-4.2,2.7-6.1,5.5-6.1
	c2.9,0,5.6,2,5.6,6.1s-2.7,6.2-5.5,6.2C217.5,79.8,214.8,77.7,214.8,73.7z M244.3,70.7c0.3-2.5,2.4-4.3,4.9-4.2c3.6,0,4.9,2.3,5,4.2
	H244.3z M254.9,77.1c-0.7,1.9-2.2,3.2-5,3.2c-3,0-5.5-2-5.6-4.8h17.3c0.1-0.8,0.2-1.5,0.2-2.3c0-7.9-4.7-12.8-12.4-12.8
	c-6.5,0-12.4,5.1-12.4,13c0,8.3,6.1,13.2,12.9,13.2c6.3,0,10.3-3.6,11.5-7.9L254.9,77.1z M292.7,86.8c11,0,15.7-7.5,16.8-12.4
	l-7.6-2.1c-0.7,2.6-3.1,6.7-9.2,6.7c-5.5,0.1-10.1-4.3-10.2-9.9c0-0.2,0-0.4,0-0.5c0-7.4,5.4-10.8,10.1-10.8c6.3,0,8.5,4.2,9.1,6.6
	l7.4-2.3c-1.2-5.2-5.9-12-16.5-12c-10-0.1-18.2,7.8-18.3,17.8c0,0.2,0,0.5,0,0.7C274.3,79.6,282.4,86.8,292.7,86.8z M310.8,79.2
	c0,4,3.1,7.6,8.6,7.6c2.8,0.2,5.5-1.2,7-3.5c0,0.9,0.1,1.9,0.3,2.8h6.8c-0.2-1.3-0.3-2.6-0.3-3.9V70c0-5.1-3-9.6-11-9.6
	c-7.3,0-10.5,4.7-10.9,8.2l6.6,1.4c0.2-2.2,2.1-3.8,4.3-3.6c0,0,0,0,0,0c2.4,0,3.6,1.2,3.6,2.7c0,0.8-0.5,1.5-1.8,1.7l-5.8,0.9
	C314,72.3,310.8,74.8,310.8,79.2L310.8,79.2z M321.2,81.2c-2.1,0-3-1.2-3-2.6c0-1.8,1.2-2.5,2.8-2.8l4.7-0.7v1.1
	C325.8,80.1,323.4,81.2,321.2,81.2z M336,79c0.2,2.8,2.7,7.8,10.4,7.8c6.7,0,9.9-4.2,9.9-8.4c0-3.6-2.5-6.7-7.7-7.8l-3.3-0.6
	c-1.1-0.2-1.9-0.8-1.9-1.8c0-1.3,1.3-2.1,2.7-2.1c1.8-0.2,3.3,1.1,3.5,2.9c0,0,0,0.1,0,0.1V69l6.3-1.1c-0.3-2.9-2.8-7.4-9.9-7.4
	c-5.5,0-9.5,3.7-9.5,8.2c0,3.5,2.1,6.5,7.4,7.7l2.9,0.6c1.8,0.4,2.4,1.1,2.4,2c0,1.1-0.9,2.1-2.9,2.1c-2,0.2-3.7-1.2-3.9-3.2
	c0,0,0-0.1,0-0.1L336,79z M367.3,86V61.3h-7.6V86H367.3z M359.1,53.7c0,2.4,2,4.4,4.4,4.4s4.4-2,4.4-4.4s-2-4.4-4.4-4.4l0,0h-0.1
	C361,49.4,359.1,51.3,359.1,53.7L359.1,53.7z M380.1,71.8c-0.2-2.2,1.4-4.1,3.6-4.3c0,0,0.1,0,0.1,0h0.4c2.8,0,4.1,1.8,4.1,4.3V86
	h7.6V70.4c0-5.5-2.8-9.9-9.1-9.9c-2.6,0-5.5,1.1-6.9,3.5v-2.9h-7.3v24.8h7.6V71.8H380.1z M412.1,79.8c-2.9,0-5.5-2-5.5-6.2
	s2.8-6.1,5.5-6.1c2.9,0,5.5,1.9,5.5,6.1S415,79.8,412.1,79.8L412.1,79.8z M412.1,60.4c-7.1-0.2-13,5.4-13.2,12.5v0.6
	c0,7.3,5.8,13.2,13.1,13.2c7.3,0,13.2-5.8,13.2-13.1l0,0c0.2-7.1-5.4-12.9-12.5-13.1C412.6,60.4,412.4,60.4,412.1,60.4L412.1,60.4z
	 M1.4,129.1c0,4,3.1,7.6,8.6,7.6c2.8,0.2,5.5-1.2,7-3.5c0,0.9,0.1,1.9,0.3,2.8H24c-0.2-1.3-0.3-2.6-0.3-3.9V120c0-5.1-3-9.6-11-9.6
	c-7.3,0-10.5,4.7-10.9,8.2l6.6,1.4c0.2-2.2,2.1-3.8,4.3-3.6c0,0,0,0,0,0c2.4,0,3.6,1.2,3.6,2.7c0,0.8-0.5,1.5-1.8,1.7l-5.8,0.9
	C4.6,122.2,1.4,124.7,1.4,129.1z M11.7,131.1c-2.1,0-3-1.3-3-2.6c0-1.8,1.2-2.5,2.8-2.8l4.7-0.7v1.1C16.4,130,14,131.1,11.7,131.1z
	 M26.7,137.3c0.7,4.4,5.3,8.9,12.4,8.9c9.2,0,13.3-6.2,13.3-13.3v-21.7h-7.2v2.7c-0.7-1.3-2.9-3-6.9-3c-6.7,0-11.6,5.5-11.6,12.1
	c0,6.9,4.9,12.1,11.6,12.1c3.6,0,5.7-1.5,6.7-2.8v1.1c0,4.5-2.3,6.4-6.1,6.4c-2.6,0.1-4.8-1.7-5.4-4.2L26.7,137.3z M39.6,128.3
	c-2.8,0.1-5.3-2.1-5.4-4.9c0,0,0,0,0,0v-0.6c-0.1-2.9,2.2-5.4,5.1-5.5s5.4,2.2,5.5,5.1l0,0v0.4c0.3,2.7-1.7,5.2-4.4,5.5
	C40.1,128.3,39.9,128.3,39.6,128.3z M68.7,129.7c-2.9,0-5.5-2-5.5-6.2s2.8-6.1,5.5-6.1c2.9,0,5.5,1.9,5.5,6.1
	C74.2,127.6,71.5,129.7,68.7,129.7z M68.7,110.3c-7.2,0-13.1,5.9-13.1,13.1c0,7.2,5.9,13.1,13.1,13.1l0,0c7.2,0,13.1-5.9,13.1-13.1
	C81.8,116.2,75.9,110.3,68.7,110.3z M100.9,111.2c-0.6-0.2-1.3-0.3-2-0.3c-2,0-5.2,0.8-6.5,3.6v-3.3h-7.3V136h7.6v-10.8
	c0-4.9,2.8-6.7,5.8-6.7c0.8,0,1.6,0.1,2.4,0.3L100.9,111.2z M102.8,129.1c0,4,3.1,7.6,8.6,7.6c2.8,0.2,5.5-1.2,7-3.5
	c0,0.9,0.1,1.9,0.3,2.8h6.8c-0.2-1.3-0.3-2.6-0.3-3.9V120c0-5.1-3-9.6-11-9.6c-7.3,0-10.5,4.7-10.9,8.2l6.6,1.4
	c0.2-2.2,2.1-3.8,4.3-3.6c0,0,0,0,0,0c2.4,0,3.6,1.2,3.6,2.7c0,0.8-0.5,1.5-1.8,1.7l-5.8,0.9C106,122.2,102.8,124.7,102.8,129.1
	L102.8,129.1z M113.2,131.1c-2.1,0-3-1.3-3-2.6c0-1.8,1.2-2.5,2.8-2.8l4.7-0.7v1.1C117.7,130,115.4,131.1,113.2,131.1L113.2,131.1z
	 M152.1,129.7c-2.9,0-5.5-2-5.5-6.2s2.8-6.1,5.5-6.1c2.9,0,5.5,1.9,5.5,6.1C157.8,127.7,155.1,129.7,152.1,129.7z M152.1,110.3
	c-7.3,0-13.1,5.9-13.1,13.2c0,7.3,5.9,13.1,13.2,13.1c7.3,0,13.1-5.9,13.1-13.2l0,0c0.2-7.1-5.4-12.9-12.5-13.1H152.1z M176.3,121.7
	c-0.2-2.2,1.4-4.1,3.6-4.3c0,0,0.1,0,0.1,0h0.4c2.8,0,4.1,1.8,4.1,4.3v14.2h7.6v-15.5c0-5.5-2.8-9.9-9.1-9.9c-2.6,0-5.5,1.1-6.9,3.5
	v-2.9h-7.3v24.8h7.6L176.3,121.7z M204.5,135.9V99.8h-7.6v36.1H204.5z M217.3,135.9v-24.8h-7.6v24.8H217.3z M209,103.6
	c0,2.4,1.9,4.4,4.3,4.4c0,0,0,0,0.1,0c2.4,0,4.4-2,4.4-4.4c0-2.4-1.9-4.4-4.3-4.4c0,0,0,0-0.1,0h-0.1
	C210.9,99.2,209,101.2,209,103.6z M230,121.7c-0.2-2.2,1.4-4.1,3.6-4.3c0,0,0.1,0,0.1,0h0.4c2.8,0,4.1,1.8,4.1,4.3v14.2h7.6v-15.5
	c0-5.5-2.8-9.9-9.1-9.9c-2.6,0-5.5,1.1-6.9,3.5v-2.9h-7.3v24.8h7.6v-14.2H230z M256.4,120.6c0.3-2.5,2.4-4.3,4.9-4.2
	c3.6,0,4.9,2.3,5,4.2H256.4z M266.8,127c-0.7,1.9-2.2,3.2-5,3.2c-3,0-5.5-2-5.6-4.8h17.3c0.1-0.8,0.2-1.5,0.2-2.3
	c0-7.9-4.7-12.8-12.4-12.8c-6.5,0-12.4,5.1-12.4,13c0,8.3,6.1,13.2,12.9,13.2c6.3,0,10.3-3.6,11.5-7.9L266.8,127z M286.9,100.5h-9.1
	l1.8,24.3h5.5L286.9,100.5z M278,132.2c0,2.4,1.9,4.3,4.3,4.3c2.4,0,4.3-1.9,4.3-4.3c0-2.4-1.9-4.3-4.3-4.3l0,0
	c-2.3-0.1-4.2,1.8-4.3,4.1C278,132.1,278,132.1,278,132.2z"/>
<path id="Caminho_3191" class="st0" d="M41,246.6c-2.5,1.8-5.4,2.8-8.5,2.7c-4,0.1-7.8-1.7-10.2-4.9H31l3.2-7.1H19.7
	c-0.1-0.7-0.1-1.3-0.1-2c0-0.6,0-1.2,0.1-1.8h15.9l3.3-7.1H21.8c2.3-3.5,6.3-5.6,10.5-5.5c2.8-0.1,5.6,0.6,8.1,2l3.9-8.4
	c-3.6-2.2-7.8-3.3-12-3.1c-9.8-0.2-18.7,5.8-22.2,15H3.7v7.1h4.9c-0.1,0.6-0.1,1.2-0.1,1.8c0,0.7,0,1.3,0.1,2H3.7v7.1h6.4
	c3.4,9.2,12,14.6,22.3,14.6c4.8,0.1,9.5-1.5,13.4-4.4L41,246.6z M65.7,226.1c-0.4-1.5-0.7-3-0.7-4.5c0-6,3.4-10.8,10.2-10.8
	c6.5,0,9.7,4,9.7,8.6c0,4.8-2.2,7.8-8,11.2L65,237.5c-13.3,7.7-17.1,18.7-17.1,32h55.2v-14.8H69.6c1.1-2.1,2.8-3.8,4.9-4.9l13.8-8.2
	c9.3-5.5,14.3-13.2,14.3-22.6c0-13-10.3-23.9-27-23.9c-17.5,0-27.2,11.6-27.2,24.6c0,2,0.2,4,0.7,6L65.7,226.1z M124.7,233.4
	c0-5.8,0.7-11.5,2.7-15.8c2-4,5.3-6.7,10.6-6.7c5.5,0,8.6,2.7,10.6,6.7c2.1,4.3,2.8,10,2.8,15.8s-0.7,11.5-2.8,15.8
	c-2,4-5.2,6.7-10.6,6.7s-8.6-2.7-10.6-6.7C125.4,244.9,124.7,239.2,124.7,233.4z M107,233.4c0,9,1.3,18,6.4,25.6
	c4.8,7.2,12.9,12.4,24.6,12.4c11.9,0,19.9-5.3,24.8-12.4c5-7.6,6.4-16.7,6.4-25.6c0-9-1.3-18-6.4-25.6c-4.8-7.3-12.9-12.4-24.8-12.4
	c-11.8,0-19.8,5.2-24.6,12.4C108.4,215.3,107,224.4,107,233.4L107,233.4z"/>
<path id="Caminho_3192" class="st0" d="M178.8,197.3v30.5h12.3c5.8,0,9.5-3.7,9.5-8.6c0.1-3.3-2.2-6.3-5.4-7.1
	c2.7-1,4.5-3.6,4.5-6.5c0-4.7-3.5-8.2-9.5-8.2L178.8,197.3L178.8,197.3z M185.4,209.5V203h3.6c2.7,0,4,1.3,4,3.3
	c0,2.1-1.5,3.3-3.9,3.3h-3.7V209.5z M185.4,222.3v-7.1h4.3c2.7,0,4.2,1.5,4.2,3.6c0,2.2-1.6,3.6-4.2,3.6h-4.3V222.3z M221.7,197.4
	h-7.3l-4,6.5h5.2L221.7,197.4z M213.6,222.4c-2.5,0-4.8-1.8-4.8-5.3c0-3.6,2.4-5.3,4.8-5.3c2.5,0,4.8,1.7,4.8,5.3
	S216.1,222.4,213.6,222.4L213.6,222.4z M213.6,205.8c-6.1-0.2-11.2,4.6-11.4,10.7v0.6c-0.1,6.1,4.7,11.2,10.8,11.4h0.6
	c6.1,0.2,11.2-4.6,11.4-10.7v-0.6c0.2-6.1-4.6-11.1-10.6-11.3c0,0,0,0-0.1,0C214.1,205.8,213.8,205.8,213.6,205.8z M234.4,215.6
	c-0.2-1.9,1.2-3.5,3.1-3.7c0,0,0.1,0,0.1,0h0.3c2.4,0,3.5,1.6,3.5,3.7v12.3h6.5v-13.4c0-4.7-2.4-8.5-7.8-8.5c-2.4-0.1-4.6,1.1-6,3
	v-2.5h-6.3v21.4h6.5v-12.3H234.4z M265.9,227.8h6.3c-0.1-1.3-0.2-2.5-0.2-3.8v-17.5h-6.5v12.2c0.1,1.8-1.3,3.5-3.1,3.6H262
	c-2.3,0-3.4-1.6-3.4-3.7v-12.1h-6.5V220c0,4.6,2.9,8.3,8.1,8.3c2.1,0,4.6-0.8,5.7-2.6C265.7,226.4,265.7,227.1,265.9,227.8
	L265.9,227.8z M274.7,221.8c0.2,2.4,2.3,6.7,9,6.7c5.7,0,8.5-3.6,8.5-7.2c0-3.1-2.2-5.8-6.6-6.7l-2.8-0.6c-0.9-0.2-1.7-0.7-1.7-1.6
	c0.1-1.2,1.1-2,2.3-1.9l0,0c1.5-0.1,2.8,1,3,2.5v0.1l5.4-1c-0.2-2.5-2.4-6.4-8.6-6.4c-4.8,0-8.2,3.2-8.2,7.1c0,3,1.8,5.6,6.4,6.6
	l2.5,0.6c1.6,0.3,2.1,1,2.1,1.8c0,0.9-0.8,1.8-2.5,1.8c-1.6,0.2-3.1-0.9-3.3-2.5c0-0.1,0-0.1,0-0.2v-0.2L274.7,221.8z M206.9,270.8
	v-16.3h-15.5v5.8h9.2c-0.4,1.7-2.5,5-7.5,5c-4.9,0-9.2-3.3-9.2-9.7c0-6.8,4.9-9.5,9-9.5c5.1,0,7.1,3.4,7.6,5.3l6.5-2.3
	c-1.3-4.3-5.4-9.4-14.1-9.4c-8.5-0.2-15.6,6.5-15.9,15c0,0,0,0.1,0,0.1v0.8c0,9.6,7,15.9,15.4,15.9c4.3,0,7.2-1.8,8.6-3.7l0.4,3.1
	L206.9,270.8z M224.5,249.4c-0.6-0.1-1.1-0.2-1.7-0.2c-1.7,0-4.4,0.7-5.5,3.1v-2.9H211v21.4h6.5v-9.3c0-4.3,2.4-5.8,5-5.8
	c0.7,0,1.4,0.1,2.1,0.2L224.5,249.4L224.5,249.4z M226.1,264.9c0,3.4,2.7,6.5,7.4,6.5c2.4,0.1,4.7-1,6-3c0,0.8,0,1.6,0.2,2.4h5.9
	c-0.2-1.1-0.3-2.2-0.3-3.3v-10.4c0-4.4-2.5-8.3-9.5-8.3c-6.3,0-9.1,4-9.4,7.1l5.7,1.2c0.1-1.9,1.8-3.3,3.6-3.1c0,0,0,0,0.1,0
	c2.1,0,3.1,1.1,3.1,2.3c0,0.7-0.4,1.3-1.5,1.5l-5,0.8C228.8,259,226.1,261.1,226.1,264.9L226.1,264.9z M235,266.7
	c-1.2,0.2-2.3-0.7-2.5-1.9c0-0.1,0-0.2,0-0.3c0-1.5,1-2.2,2.4-2.4l4-0.6v0.9C239,265.7,237,266.7,235,266.7L235,266.7z M243.9,240.4
	h-7.3l-4,6.5h5.2L243.9,240.4z M257.1,243.2h-5.8v2.8c0,2-1.1,3.5-3.3,3.5h-1.1v5.7h3.8v9.2c0,4.3,2.7,6.9,7.1,6.9
	c1.2,0.1,2.3-0.1,3.4-0.6v-5.4c-0.6,0.1-1.1,0.2-1.7,0.2c-1.4,0-2.4-0.5-2.4-2.2v-8h4.2v-5.7h-4.2L257.1,243.2L257.1,243.2z
	 M271.2,270.8v-21.4h-6.5v21.4H271.2z M264.1,242.9c0,2.1,1.7,3.8,3.8,3.8c2.1,0,3.8-1.7,3.8-3.8c0-2.1-1.7-3.8-3.8-3.8l0,0l0,0
	C265.8,239.1,264.1,240.8,264.1,242.9z M273.9,264.8c0.2,2.4,2.3,6.7,9,6.7c5.7,0,8.5-3.6,8.5-7.2c0-3.1-2.1-5.8-6.6-6.7L282,257
	c-0.9-0.2-1.7-0.7-1.7-1.6c0.1-1.2,1.1-2,2.3-1.9l0,0c1.5-0.1,2.8,1,3,2.5v0.1l5.4-1c-0.2-2.5-2.4-6.4-8.6-6.4
	c-4.8,0-8.2,3.2-8.2,7.1c0,3,1.8,5.6,6.4,6.6l2.5,0.6c1.6,0.3,2.1,1,2.1,1.8c0,0.9-0.8,1.8-2.5,1.8c-1.6,0.2-3.1-0.9-3.3-2.5
	c0-0.1,0-0.1,0-0.2v-0.2L273.9,264.8z"/>
</svg>
