<?xml version="1.0" encoding="utf-8"?>
<!-- Generator: Adobe Illustrator 21.1.0, SVG Export Plug-In . SVG Version: 6.00 Build 0)  -->
<svg version="1.1" id="cta" xmlns="http://www.w3.org/2000/svg" xmlns:xlink="http://www.w3.org/1999/xlink" x="0px" y="0px"
	 viewBox="0 0 150.1 24.8" style="enable-background:new 0 0 150.1 24.8;" xml:space="preserve">
<style type="text/css">
	.st0{fill:#024523;}
	.st1{fill:#FFE000;}
</style>
<g id="Agrupar_765">
	<path id="Caminho_1196" class="st0" d="M137.6,24.8H12.4C5.6,24.8,0,19.2,0,12.4l0,0C0,5.6,5.6,0,12.4,0h125.3
		c6.8,0,12.4,5.6,12.4,12.4l0,0C150,19.2,144.4,24.7,137.6,24.8z"/>
</g>
<g id="Agrupar_767">
	<g id="Agrupar_766">
		<path id="Caminho_1197" class="st1" d="M47.8,11.5c0-0.3-0.3-0.9-1.2-0.9c-0.5,0-0.9,0.3-1,0.8c0,0.3,0.2,0.6,0.7,0.7l0.9,0.2
			c1.1,0.1,2,1,2,2.1c-0.1,1.3-1.2,2.3-2.5,2.2c0,0-0.1,0-0.1,0c-1.4,0.2-2.7-0.9-2.9-2.3l1.4-0.4c0.1,0.7,0.7,1.3,1.4,1.2
			c0,0,0.1,0,0.1,0c0.6,0,1-0.3,1-0.7s-0.3-0.6-0.8-0.7l-1-0.2c-1.1-0.1-1.9-1-1.9-2.1c0.1-1.3,1.2-2.3,2.5-2.3
			C47.6,9,48.7,9.8,49,11L47.8,11.5z"/>
		<path id="Caminho_1198" class="st1" d="M55,15h-2.7l-0.5,1.4h-1.7l2.7-7.1h1.8l2.6,7.1h-1.7L55,15z M52.8,13.6h1.7l-0.8-2.4
			L52.8,13.6z"/>
		<path id="Caminho_1199" class="st1" d="M58.6,16.4V9.3h1.6v7.1H58.6z"/>
		<path id="Caminho_1200" class="st1" d="M64.9,9.3c1.4,0,2.2,0.8,2.2,1.9c0,0.7-0.4,1.2-1,1.5c0.8,0.2,1.3,0.9,1.3,1.7
			c0,1.1-0.9,2-2,2c-0.1,0-0.1,0-0.2,0h-2.9V9.3H64.9z M64.6,12.2c0.4,0,0.8-0.3,0.9-0.7c0,0,0,0,0-0.1c0-0.5-0.3-0.8-0.9-0.8h-0.8
			v1.5h0.8V12.2z M64.8,15.1c0.6,0,1-0.3,1-0.8s-0.4-0.8-1-0.8h-1v1.7L64.8,15.1L64.8,15.1z"/>
		<path id="Caminho_1201" class="st1" d="M73,15h-2.7l-0.5,1.4h-1.7l2.7-7.1h1.8l2.6,7.1h-1.7L73,15z M70.8,13.6h1.7l-0.8-2.4
			L70.8,13.6z"/>
		<path id="Caminho_1202" class="st1" d="M86,16.4v-4.7l-1.8,4.7h-1.3L81,11.8v4.6h-1.5V9.3h2.1l1.9,4.8l1.8-4.8h2.2v7.1H86z"/>
		<path id="Caminho_1203" class="st1" d="M93.9,15h-2.7l-0.5,1.4H89l2.7-7.1h1.8l2.6,7.1h-1.7L93.9,15z M91.6,13.6h1.7l-0.8-2.4
			L91.6,13.6z"/>
		<path id="Caminho_1204" class="st1" d="M97.5,16.4V9.3h1.6v7.1H97.5z"/>
		<path id="Caminho_1205" class="st1" d="M104.5,11.5c0-0.3-0.3-0.9-1.2-0.9c-0.5,0-0.9,0.3-1,0.8c0,0.3,0.2,0.6,0.7,0.7l0.9,0.2
			c1.1,0.1,2,1,2,2.1c-0.1,1.3-1.2,2.3-2.5,2.2c0,0-0.1,0-0.1,0c-1.4,0.2-2.7-0.9-2.9-2.3L102,14c0.1,0.7,0.7,1.3,1.4,1.2
			c0,0,0.1,0,0.1,0c0.6,0,1-0.3,1-0.7s-0.3-0.6-0.8-0.7l-1-0.2c-1.1-0.1-1.9-1-1.9-2.1c0.1-1.3,1.2-2.3,2.5-2.3
			c1.2-0.1,2.3,0.7,2.6,1.9L104.5,11.5z"/>
	</g>
</g>
</svg>
